<svg width="162" height="48" viewBox="0 0 162 48" fill="none" xmlns="http://www.w3.org/2000/svg">
<g clip-path="url(#clip0_66_3207)">
<mask id="mask0_66_3207" style="mask-type:luminance" maskUnits="userSpaceOnUse" x="-9" y="-5" width="171" height="122">
<path d="M-8.82254 -4.36904H161.927V116.363H-8.82254V-4.36904Z" fill="white"/>
</mask>
<g mask="url(#mask0_66_3207)">
<path d="M0.00384521 47.984V43.6472C4.43114 44.2325 8.58564 41.8206 10.8087 38.4088C15.1687 31.7219 16.6622 23.1491 21.125 16.1423C23.8713 12.2406 27.7449 9.75341 33.6388 10.4629C36.0665 10.9316 38.7875 11.8879 39.8582 14.2653C39.8582 14.2653 41.044 16.2853 40.1484 19.2471C40.1484 19.2471 37.4574 28.1907 37.4755 28.8557C37.4931 29.5208 38.85 29.2782 40.9295 29.3242L39.8854 33.0196C39.8854 33.0196 36.1164 32.822 35.8878 33.6769C35.8878 33.6769 34.6174 38.3985 34.5133 38.7854C34.4095 39.172 33.6895 42.253 39.6249 39.5874C41.66 38.5526 42.5406 37.548 43.6519 34.2884C43.991 33.2889 47.8021 19.4406 49.6812 13.3636L57.6813 13.383C55.2627 21.8596 52.9005 30.3624 50.5424 38.8674C50.4219 39.5795 50.2075 40.3159 51.2936 40.585C52.9257 40.9181 56.393 38.7875 57.1398 37.9005C57.8868 37.0128 58.2362 35.676 58.2362 35.676C58.2362 35.676 62.3599 20.5806 64.682 13.2765L72.7137 13.2877C72.2361 14.9719 71.2976 18.3101 71.2976 18.3101C71.2976 18.3101 69.8173 23.5612 69.2758 26.1019C69.4096 26.6288 70.0895 26.2852 70.362 26.0218C72.248 24.1786 75.0538 24.4331 77.0159 26.0128C79.6707 28.0838 79.9719 31.4992 79.3381 34.6397C77.9875 41.1195 71.7481 46.3187 65.1789 47.3123C61.6103 47.8572 57.6919 46.9034 57.256 43.5009C57.0402 42.0644 56.4423 42.497 56.4423 42.497C53.1175 45.1671 48.9699 48.6602 44.4088 47.064C42.5644 46.2828 42.133 44.2836 41.6716 42.5933C37.5556 45.0872 33.4129 47.8386 28.1392 47.2987C26.5579 47.0892 25.2785 46.3982 24.6968 44.2511C24.1151 42.1041 25.2921 37.2106 26.2751 33.8866C26.192 33.2856 26.0816 33.2321 25.4302 33.2005L18.7851 33.1802L15.9361 38.6919C13.5086 43.3652 8.45948 47.6278 2.46625 47.9968C1.63672 48.0479 0.811868 48.0452 0.00384521 47.984ZM138.928 15.5163C139.957 14.4365 141.366 13.9572 142.832 13.7371C143.894 12.4566 144.695 11.0596 146.31 10.2114L146.717 10.2978C147.123 11.3303 147.265 12.4444 147.552 13.5021C148.574 14.2803 149.89 14.5999 150.737 15.5773C150.409 16.2604 149.498 16.5695 148.792 16.882C148.148 17.1349 147.473 17.3029 146.768 17.3848C146.03 18.5808 145.203 20.006 143.794 20.6575C143.123 19.6519 142.719 18.566 142.375 17.4207C141.145 16.9565 139.77 16.5218 138.928 15.5163ZM41.172 1.89588C42.6165 2.54145 43.9865 3.41478 45.2065 4.41264L40.8938 10.0702C36.2259 6.04633 28.2001 6.71866 24.0498 9.16281L20.3425 3.39368C21.7825 2.54449 23.0619 1.90643 24.7102 1.37383L26.0297 3.70481C27.1649 3.32696 28.6702 3.028 30.3094 2.89698L30.3335 0.249214C32.169 0.109268 33.1092 -0.112209 35.7809 0.45142L35.6187 3.08885C37.0664 3.3446 38.3322 3.80905 39.4732 4.5037L41.172 1.89588ZM91.1193 31.2761C89.9101 33.5043 88.6058 36.7814 88.5089 38.8511C88.4109 40.9199 90.7269 42.7339 91.8696 39.36C91.8696 39.36 93.3716 33.6308 94.0561 31.657C94.7406 29.684 93.1753 28.0301 91.1193 31.2761ZM81.0844 44.2595C80.5607 43.248 80.194 41.9887 80.0603 40.4798C79.8316 33.918 82.9977 28.9703 87.7931 25.7364C89.2601 24.8288 91.2982 24.4106 93.143 24.8779C93.8732 25.1663 94.7968 25.6468 95.4085 26.2209C95.7551 26.2789 95.9515 26.0246 95.9811 25.3553L103.997 25.6403L101.261 37.5162C100.81 38.756 100.682 41.588 104.923 39.074C107.959 37.1002 108.44 34.8496 108.575 34.3673C109.444 31.2701 110.359 28.4748 111.196 25.3644L119.512 25.3553C119.512 25.3553 119.511 25.3581 119.51 25.3622H119.512C119.512 25.3622 119.464 25.5437 119.458 25.7463C119.453 25.9498 119.491 26.1731 119.661 26.2566C120.525 26.0577 120.851 25.5427 121.732 25.232C125.059 23.924 129.009 24.4972 130.151 28.0954C130.968 31.0857 130.02 34.1056 128.973 36.9645C127.215 41.7786 131.556 41.5549 135.091 36.1141C135.091 36.1141 136.795 30.9382 138.537 25.4001L146.463 25.3821L146.46 25.3924H146.463L143.01 38.2559C142.978 38.8572 142.959 39.4002 143.367 39.8297C143.864 40.4325 144.712 40.4927 145.473 40.3254C147.297 39.4488 149.315 37.5466 150.698 36.1251L153.15 39.0921C151.675 41.3172 148.592 43.9743 146.878 45.0273C143.647 46.8868 139.615 48.6857 136.141 46.2978C134.915 45.236 134.703 43.8449 134.242 42.4122C134.242 42.4122 125.811 50.276 120.86 45.9735C120.242 45.467 119.723 45.0208 119.404 44.1544C119.217 43.7376 119.105 43.2896 119.119 42.8229C119.037 42.0129 119.398 40.4842 119.892 38.7061C120.315 37.0804 120.827 35.4874 121.262 33.8669C121.29 33.7594 121.318 33.6521 121.346 33.5457C121.348 33.5382 121.35 33.5307 121.352 33.5231C121.414 33.2818 121.474 33.0437 121.53 32.8094C121.544 32.7535 121.557 32.6973 121.57 32.6413C121.602 32.507 121.632 32.3748 121.661 32.2438C121.704 32.0507 121.746 31.8572 121.785 31.6627C121.964 31.0916 121.94 30.4054 121.471 30.0027C120.976 29.6009 120.273 29.4256 119.688 29.5084C118.072 29.815 117.671 31.3846 117.196 32.6965C115.882 37.2325 114.803 41.5208 113.491 46.056L105.418 46.0534C105.541 44.7683 106.279 43.5879 106.112 42.271L105.701 42.2698C105.678 42.2865 105.655 42.3039 105.632 42.3207C105.379 42.5173 104.569 43.2014 103.457 43.9948C100.975 45.9043 98.2441 47.7437 95.1627 46.9867C92.8808 46.2031 93.0861 45.3484 92.1823 44.3428C92.0845 44.354 91.987 44.3974 91.8888 44.4631C91.4617 44.7533 91.0041 45.4877 90.5101 45.8291C86.8991 49.4398 82.6367 46.4517 81.7551 45.321C81.5817 45.0985 81.4214 44.8517 81.2689 44.5917C81.1878 44.444 81.0844 44.2595 81.0844 44.2595ZM138.928 15.5163C139.957 14.4365 141.366 13.9572 142.832 13.7371C143.894 12.4566 144.695 11.0596 146.31 10.2114L146.717 10.2978C147.123 11.3303 147.265 12.4444 147.552 13.5021C148.574 14.2803 149.89 14.5999 150.737 15.5773C150.409 16.2604 149.498 16.5695 148.792 16.882C148.148 17.1349 147.473 17.3029 146.768 17.3848C146.03 18.5808 145.203 20.006 143.794 20.6575C143.123 19.6519 142.719 18.566 142.375 17.4207C141.145 16.9565 139.77 16.5218 138.928 15.5163ZM41.172 1.89588C42.6165 2.54145 43.9865 3.41478 45.2065 4.41264L40.8938 10.0702C36.2259 6.04633 28.2001 6.71866 24.0498 9.16281L20.3425 3.39368C21.7825 2.54449 23.0619 1.90643 24.7102 1.37383L26.0297 3.70481C27.1649 3.32696 28.6702 3.028 30.3094 2.89698L30.3335 0.249214C32.169 0.109268 33.1092 -0.112209 35.7809 0.45142L35.6187 3.08885C37.0664 3.3446 38.3322 3.80905 39.4732 4.5037L41.172 1.89588ZM30.8152 17.9352C31.0401 16.7348 31.0474 15.9507 29.8218 15.3678C28.727 14.8841 27.2748 15.2871 25.6101 17.2077C22.8881 20.8747 21.7825 24.6562 20.3813 29.1354L27.4728 29.1768C28.8128 25.4415 29.7993 21.8164 30.8152 17.9352ZM68.1704 40.0922C70.3038 37.5073 71.3345 32.0091 70.9107 30.8953C70.665 29.7512 68.4919 29.2618 67.7763 31.4309C66.9373 33.9685 66.253 36.6808 65.7145 39.2229C65.2963 40.6335 66.2767 42.3842 68.1704 40.0922Z" fill="white"/>
<mask id="mask1_66_3207" style="mask-type:luminance" maskUnits="userSpaceOnUse" x="-1" y="0" width="155" height="49">
<path d="M-0.00942993 0.099575H153.136V48.0459H-0.00942993V0.099575Z" fill="white"/>
</mask>
<g mask="url(#mask1_66_3207)">
<path d="M-0.00942993 47.9974V43.6606C4.41786 44.2459 8.57236 41.834 10.7952 38.4222C15.1554 31.7354 16.6489 23.1625 21.1117 16.1558C23.8581 12.254 27.7317 9.76684 33.6255 10.4763C36.0532 10.945 38.7742 11.9013 39.8449 14.2787C39.8449 14.2787 41.0308 16.2988 40.1351 19.2605C40.1351 19.2605 37.4442 28.2041 37.4622 28.8692C37.4799 29.5342 38.8367 29.2916 40.9162 29.3377L39.8721 33.033C39.8721 33.033 36.1031 32.8354 35.8746 33.6903C35.8746 33.6903 34.6041 38.4119 34.5001 38.7989C34.3962 39.1854 33.6762 42.2664 39.6117 39.6008C41.6467 38.566 42.5274 37.5615 43.6384 34.3018C43.9777 33.3023 47.7888 19.454 49.6679 13.377L57.668 13.3965C55.2495 21.873 52.8872 30.3759 50.5291 38.8808C50.4086 39.5929 50.1942 40.3293 51.2803 40.5987C52.9124 40.9315 56.3798 38.8009 57.1265 37.914C57.8735 37.0262 58.223 35.6895 58.223 35.6895C58.223 35.6895 62.3466 20.594 64.6687 13.29L72.7004 13.3011C72.2228 14.9853 71.2844 18.3235 71.2844 18.3235C71.2844 18.3235 69.804 23.5746 69.2625 26.1153C69.3963 26.6422 70.0762 26.2986 70.3488 26.0352C72.2348 24.192 75.0405 24.4465 77.0026 26.0263C79.6575 28.0972 79.9586 31.5127 79.3248 34.6531C77.9743 41.1329 71.7348 46.3321 65.1656 47.3257C61.597 47.8707 57.6786 46.9168 57.2427 43.5144C57.0269 42.0778 56.429 42.5104 56.429 42.5104C53.1043 45.1805 48.9567 48.6736 44.3955 47.0774C42.5511 46.2962 42.1197 44.297 41.6583 42.6068C37.5423 45.1006 33.3996 47.852 28.1259 47.3121C26.5446 47.1026 25.2652 46.4116 24.6835 44.2646C24.1018 42.1176 25.2788 37.224 26.2618 33.9C26.1787 33.2991 26.0684 33.2397 25.4169 33.2082L18.7718 33.1936L15.9229 38.7054C13.4953 43.3789 8.44621 47.6413 2.45297 48.0102C1.62345 48.0613 0.798593 48.0587 -0.00942993 47.9974ZM138.915 15.5299C139.944 14.4499 141.353 13.9706 142.818 13.7506C143.88 12.47 144.681 11.073 146.296 10.2248L146.704 10.3112C147.11 11.3437 147.251 12.458 147.538 13.5155C148.56 14.2937 149.877 14.6134 150.723 15.5907C150.396 16.2738 149.484 16.5829 148.779 16.8954C148.135 17.1484 147.46 17.3163 146.754 17.3982C146.017 18.5942 145.19 20.0194 143.781 20.6709C143.11 19.6653 142.706 18.5794 142.362 17.4341C141.132 16.9699 139.757 16.5352 138.915 15.5299ZM41.1587 1.90931C42.6032 2.55487 43.9732 3.42821 45.193 4.42606L40.8805 10.0836C36.2127 6.05975 28.1868 6.73209 24.0365 9.17624L20.3293 3.40731C21.7693 2.55792 23.0486 1.91986 24.6969 1.38726L26.0164 3.71824C27.1516 3.34039 28.6569 3.04143 30.2961 2.91041L30.3202 0.262642C32.1557 0.122696 33.096 -0.0987816 35.7677 0.464848L35.6054 3.10228C37.0531 3.35803 38.3189 3.82248 39.46 4.51713L41.1587 1.90931ZM91.1061 31.2896C89.8969 33.5177 88.5926 36.7948 88.4956 38.8646C88.3976 40.9333 90.7136 42.7473 91.8563 39.3734C91.8563 39.3734 93.3583 33.6443 94.0429 31.6705C94.7274 29.6975 93.162 28.0435 91.1061 31.2896ZM81.0711 44.2729C80.5474 43.2614 80.1807 42.0022 80.0471 40.4932C79.8183 33.9315 82.9845 28.9837 87.7799 25.7498C89.2468 24.8422 91.285 24.424 93.1298 24.8913C93.8599 25.1797 94.7835 25.6602 95.3952 26.2344C95.7419 26.2924 95.9382 26.038 95.9678 25.3687L103.984 25.6535L101.248 37.5298C100.796 38.7695 100.669 41.6014 104.91 39.0875C107.946 37.1137 108.427 34.863 108.562 34.3807C109.43 31.2835 110.345 28.4883 111.183 25.3779L119.499 25.3687C119.499 25.3687 119.498 25.3716 119.497 25.3756H119.499C119.499 25.3756 119.45 25.5572 119.445 25.7598C119.44 25.9632 119.477 26.1865 119.647 26.2701C120.512 26.0711 120.837 25.5563 121.718 25.2454C125.045 23.9375 128.996 24.5106 130.138 28.1088C130.955 31.0991 130.007 34.1191 128.96 36.978C127.202 41.792 131.542 41.5683 135.078 36.1276C135.078 36.1276 136.782 30.9517 138.523 25.4136L146.45 25.3955L146.447 25.4058H146.45L142.997 38.2693C142.964 38.8707 142.946 39.4136 143.354 39.8432C143.851 40.4459 144.698 40.5062 145.46 40.3389C147.284 39.4623 149.302 37.5601 150.684 36.1385L153.136 39.1055C151.662 41.3306 148.579 43.9877 146.864 45.0408C143.634 46.9002 139.602 48.6992 136.128 46.3112C134.902 45.2495 134.69 43.8583 134.229 42.4256C134.229 42.4256 125.797 50.2895 120.846 45.9869C120.228 45.4805 119.709 45.0343 119.391 44.1678C119.203 43.751 119.092 43.303 119.106 42.8363C119.024 42.0263 119.384 40.4977 119.878 38.7196C120.302 37.0938 120.813 35.5009 121.248 33.8804C121.277 33.7729 121.305 33.6656 121.333 33.5591C121.335 33.5516 121.336 33.5441 121.338 33.5366C121.401 33.2952 121.46 33.0571 121.517 32.8229C121.53 32.7669 121.543 32.7107 121.557 32.6549C121.588 32.5205 121.619 32.3882 121.648 32.2572C121.691 32.0641 121.733 31.8706 121.772 31.6761C121.951 31.105 121.926 30.4189 121.458 30.0161C120.963 29.6143 120.26 29.4391 119.674 29.5218C118.059 29.8285 117.657 31.3981 117.183 32.7099C115.869 37.2459 114.79 41.5343 113.478 46.0694L105.405 46.0668C105.528 44.7818 106.266 43.6014 106.099 42.2845L105.688 42.2833C105.665 42.2999 105.642 42.3173 105.619 42.3342C105.366 42.5307 104.555 43.2148 103.443 44.0082C100.962 45.9177 98.2308 47.7571 95.1494 47.0002C92.8675 46.2165 93.0728 45.3618 92.169 44.3562C92.0713 44.3676 91.9737 44.4108 91.8755 44.4765C91.4484 44.7667 90.9909 45.5011 90.4968 45.8425C86.8858 49.4532 82.6235 46.4651 81.7418 45.3344C81.5684 45.1119 81.4082 44.8651 81.2557 44.6051C81.1745 44.4575 81.0711 44.2729 81.0711 44.2729ZM138.915 15.5299C139.944 14.4499 141.353 13.9706 142.818 13.7506C143.88 12.47 144.681 11.073 146.296 10.2248L146.704 10.3112C147.11 11.3437 147.251 12.458 147.538 13.5155C148.56 14.2937 149.877 14.6134 150.723 15.5907C150.396 16.2738 149.484 16.5829 148.779 16.8954C148.135 17.1484 147.46 17.3163 146.754 17.3982C146.017 18.5942 145.19 20.0194 143.781 20.6709C143.11 19.6653 142.706 18.5794 142.362 17.4341C141.132 16.9699 139.757 16.5352 138.915 15.5299ZM41.1587 1.90931C42.6032 2.55487 43.9732 3.42821 45.193 4.42606L40.8805 10.0836C36.2127 6.05975 28.1868 6.73209 24.0365 9.17624L20.3293 3.40731C21.7693 2.55792 23.0486 1.91986 24.6969 1.38726L26.0164 3.71824C27.1516 3.34039 28.6569 3.04143 30.2961 2.91041L30.3202 0.262642C32.1557 0.122696 33.096 -0.0987816 35.7677 0.464848L35.6054 3.10228C37.0531 3.35803 38.3189 3.82248 39.46 4.51713L41.1587 1.90931ZM30.8019 17.9487C31.0268 16.7482 31.0341 15.9641 29.8085 15.3812C28.7137 14.8975 27.2615 15.3005 25.5968 17.2212C22.8748 20.8881 21.7693 24.6696 20.368 29.1488L27.4593 29.1902C28.7995 25.4549 29.786 21.8298 30.8019 17.9487ZM68.1571 40.1056C70.2906 37.5207 71.3213 32.0225 70.8974 30.9087C70.6518 29.7648 68.4786 29.2752 67.7631 31.4443C66.924 33.982 66.2397 36.6944 65.7012 39.2363C65.283 40.6469 66.2634 42.3976 68.1571 40.1056Z" fill="white"/>
</g>
</g>
</g>
<defs>
<clipPath id="clip0_66_3207">
<rect width="162" height="47.9155" fill="white" transform="translate(0 0.0422363)"/>
</clipPath>
</defs>
</svg>
