<svg width="190" height="66" viewBox="0 0 190 66" fill="none" xmlns="http://www.w3.org/2000/svg">
<g clip-path="url(#clip0_66_3114)">
<mask id="mask0_66_3114" style="mask-type:luminance" maskUnits="userSpaceOnUse" x="-233" y="-188" width="626" height="443">
<path d="M-232.903 -187.924H392.548V254.318H-232.903V-187.924Z" fill="white"/>
</mask>
<g mask="url(#mask0_66_3114)">
<path d="M153.847 59.5038C153.847 62.0029 153.573 62.2667 151.31 62.2667C148.877 62.2667 148.802 62.0029 148.802 59.5038V52.8755H145.473V59.8619C145.473 62.1456 145.655 62.9568 146.425 63.7525C147.143 64.4887 148.002 64.803 151.283 64.803C154.57 64.803 155.316 64.4887 156.036 63.7525C156.809 62.9568 157.174 62.1456 157.174 59.8619V52.8755H153.847V59.5038Z" fill="white"/>
<path d="M80.0075 52.8756H75.8568L72.2901 57.4623H70.9298V52.8756H67.6469L67.615 64.5913H70.9298V59.4897H72.2879L76.1362 64.5913H80.7066L75.1578 58.3664L80.0075 52.8756Z" fill="white"/>
<path d="M112.474 33.2292V30.8912H102.789V42.6062H112.474V40.2638H106.053V37.9154H111.942V35.5998H106.053V33.2292H112.474Z" fill="white"/>
<path d="M152.764 42.6062H162.443V40.2638H156.028V37.9154H161.915V35.5998H156.028V33.2292H162.443V30.8905H152.764V42.6062Z" fill="white"/>
<path d="M189.97 55.2145V52.8758H180.265V64.5908H189.97V62.2484H183.549V59.9001H189.437V57.5844H183.549V55.2145H189.97Z" fill="white"/>
<path d="M78.5986 41.7871C79.6484 40.7225 80.3445 38.8667 80.3445 36.7672C80.3445 34.6581 79.6484 32.7644 78.5986 31.6961C77.9033 30.9955 76.8528 30.6969 73.737 30.6969C70.6242 30.6969 69.5722 30.9955 68.8791 31.6961C67.8242 32.7644 67.1288 34.6581 67.1288 36.7672C67.1288 38.8667 67.8242 40.7225 68.8791 41.7871C69.5722 42.4936 70.6242 42.7908 73.737 42.7908C76.8528 42.7908 77.9033 42.4936 78.5986 41.7871ZM71.3099 39.7671C70.7995 39.1832 70.4355 38.0242 70.4355 36.7672C70.4355 35.511 70.7995 34.3104 71.3099 33.7243C71.6308 33.3558 71.9473 33.1544 73.7541 33.1544C75.5594 33.1544 75.8744 33.3558 76.1975 33.7243C76.7079 34.3104 77.066 35.511 77.066 36.7672C77.066 38.0242 76.7079 39.1832 76.1975 39.7671C75.8744 40.1371 75.5594 40.3369 73.7541 40.3369C71.9473 40.3369 71.6308 40.1371 71.3099 39.7671Z" fill="white"/>
<path d="M97.5711 36.7832C97.5711 34.7313 96.9397 32.9008 95.91 31.8622C95.147 31.0962 94.0408 30.8905 91.4711 30.8905H85.5255V42.6062H91.613C93.9472 42.6062 94.8788 42.442 95.3194 42.1456C96.6432 41.2556 97.5711 39.1673 97.5711 36.7832ZM93.3432 39.6918C93.003 40.0914 92.6902 40.2118 91.1947 40.2118H88.8308V33.3406H91.1947C92.7489 33.3406 93.1515 33.5278 93.4606 33.8866C93.9554 34.4498 94.2436 35.5597 94.2436 36.7773C94.2436 38.0261 93.8373 39.1145 93.3432 39.6918Z" fill="white"/>
<path d="M171.946 62.2368H171.441L168.264 52.8753H162.525V64.5911H165.298L165.319 55.1056H165.84L169.035 64.5911H174.764V52.8753H172.004L171.946 62.2368Z" fill="white"/>
<path d="M127.46 40.2519H126.955L123.778 30.8905H118.038V42.6062H120.813L120.833 33.1199H121.354L124.549 42.6062H130.278V30.8905H127.518L127.46 40.2519Z" fill="white"/>
<path d="M89.6538 52.682C86.5432 52.682 85.489 52.9807 84.7981 53.6812C83.7424 54.7495 83.0471 56.6432 83.0471 58.7524C83.0471 60.8518 83.7424 62.7076 84.7981 63.7722C85.489 64.4787 86.5432 64.7751 89.6538 64.7751C92.771 64.7751 93.82 64.4787 94.5169 63.7722C95.5651 62.7076 96.2642 60.8518 96.2642 58.7524C96.2642 56.6432 95.5651 54.7495 94.5169 53.6812C93.82 52.9807 92.771 52.682 89.6538 52.682ZM92.1136 61.7522C91.7904 62.1222 91.4776 62.322 89.6701 62.322C87.8648 62.322 87.5506 62.1222 87.2259 61.7522C86.7193 61.1683 86.3552 60.0086 86.3552 58.7524C86.3552 57.4961 86.7193 56.2948 87.2259 55.7094C87.5506 55.3409 87.8648 55.1396 89.6701 55.1396C91.4776 55.1396 91.7904 55.3409 92.1136 55.7094C92.6232 56.2948 92.9843 57.4961 92.9843 58.7524C92.9843 60.0086 92.6232 61.1683 92.1136 61.7522Z" fill="white"/>
<path d="M111.66 52.8756L110.004 61.6353H109.436L107.808 52.8756H101.787L100.734 64.5913H103.966L104.62 55.114H105.357L107.441 64.5913H111.965L114.125 55.1036H114.822L115.483 64.5913H118.696L117.649 52.8756H111.66Z" fill="white"/>
<path d="M133.993 52.8756L132.335 61.6353H131.768L130.141 52.8756H124.12L123.067 64.5913H126.298L126.953 55.114H127.688L129.774 64.5913H134.298L136.458 55.1036H137.155L137.817 64.5913H141.026L139.983 52.8756H133.993Z" fill="white"/>
<path d="M141.489 30.6889C137.972 30.6889 137.421 30.9504 136.634 31.7632C136.064 32.3523 135.715 33.3537 135.652 34.7259C135.615 35.5624 135.624 36.4309 136.195 37.0341C136.679 37.5482 137.491 37.7622 138.732 37.8164C139.4 37.8439 142.716 37.9071 143.145 37.9204C143.977 37.9472 144.096 37.9918 144.182 38.5185C144.261 39.0029 144.096 39.6678 143.889 39.9939C143.705 40.2911 143.294 40.5897 141.636 40.5897C140.189 40.5897 139.663 40.4931 139.395 40.1729C139.297 40.0519 139.206 39.8119 139.128 39.4627H135.656C135.724 40.0021 135.866 40.511 136.082 40.9723C136.277 41.3891 136.522 41.7435 136.792 41.999C137.389 42.5644 138.736 42.7939 141.434 42.7939C145.223 42.7939 145.655 42.5072 146.277 41.8564C146.702 41.4092 147.001 40.8965 147.184 40.2933C147.36 39.7153 147.419 39.0251 147.456 38.4449C147.48 38.1143 147.493 37.725 147.425 37.341C147.35 36.9078 147.188 36.5609 146.928 36.2779C146.695 36.0215 146.373 35.8172 145.979 35.6754C145.532 35.5149 144.975 35.4257 144.322 35.4138L142.398 35.3767C140.567 35.341 140.148 35.3351 139.678 35.3032C139.174 35.2697 138.94 35.1887 138.888 34.6798C138.836 34.197 138.981 33.6465 139.182 33.3582C139.425 33.0202 139.859 32.8255 141.375 32.8255C142.151 32.8255 142.709 32.8768 143.081 32.986C143.405 33.0811 143.601 33.2156 143.717 33.4236C143.781 33.5365 143.873 33.8069 143.939 34.0268H147.211C147.042 33.0536 146.693 32.2483 146.204 31.6919C145.567 30.9697 144.245 30.6889 141.489 30.6889Z" fill="white"/>
<path d="M30.3148 9.3574C29.9136 9.29574 29.5035 9.2534 29.0867 9.23185L29.0541 9.07658H28.7339L28.7331 11.318H27.965L28.0051 11.9346C28.0051 11.9346 28.6247 11.8885 28.8839 11.8885H29.563L29.216 9.83658C29.5845 9.86036 29.9522 9.89973 30.3148 9.95545V9.3574Z" fill="white"/>
<path d="M26.8472 9.31356V9.91016C27.2692 9.85005 27.7261 9.81592 28.2112 9.80924L28.342 9.21116C27.8108 9.21265 27.3101 9.24752 26.8472 9.31356Z" fill="white"/>
<path d="M28.5504 19.9099C28.56 19.9099 28.5697 19.9084 28.5793 19.9084C28.5927 19.9084 28.6053 19.9106 28.6187 19.9106C29.0125 18.3542 29.9574 15.6337 33.6683 14.5453C33.3295 14.2935 33.0197 13.9881 32.7307 13.5506C32.1669 12.6947 31.756 10.8397 31.8207 8.95936C31.3764 8.80484 31.0027 8.69563 30.6617 8.61762V11.1212C30.6617 12.8351 30.1045 13.399 28.5875 13.4042C27.0697 13.399 26.5133 12.8351 26.5133 11.1212V8.62654C26.1678 8.70529 25.7949 8.8145 25.3544 8.96457C25.4168 10.8426 25.0015 12.6955 24.4435 13.5506C24.1575 13.9896 23.8477 14.2957 23.5097 14.5483C27.2124 15.6382 28.1566 18.355 28.5504 19.9099Z" fill="white"/>
<path d="M25.1598 8.19312C26.5735 7.71914 27.3647 7.63742 28.5905 7.63742C29.8461 7.63742 30.6462 7.71839 32.0154 8.18866C32.1565 7.11515 32.2999 6.19245 32.4663 5.25638C32.4945 5.09368 32.4968 4.99859 32.3058 5.01048C31.5993 5.05505 30.9723 5.29947 30.7665 5.43542C30.5867 5.55577 30.4166 5.73184 30.6031 5.93466C30.7903 6.13748 30.9003 6.23257 30.9003 6.49407C30.9003 6.63448 30.8646 7.13298 30.1945 7.13298C29.6113 7.13298 29.1834 6.51487 29.1834 6.05501C29.1834 5.59515 29.5073 5.49188 29.6165 5.42131C29.7495 5.33661 29.9887 5.08254 29.7606 4.71034C29.5779 4.41169 29.0244 3.71781 28.5876 3.71484C28.1507 3.71781 27.5965 4.41169 27.4138 4.71034C27.1864 5.08254 27.4257 5.33661 27.5586 5.42131C27.6671 5.49188 27.9918 5.59515 27.9918 6.05501C27.9918 6.51487 27.5638 7.13298 26.9806 7.13298C26.3098 7.13298 26.2749 6.63448 26.2749 6.49407C26.2749 6.23257 26.3841 6.13748 26.5713 5.93466C26.7585 5.73184 26.5884 5.55577 26.4079 5.43542C26.2021 5.29947 25.5758 5.05505 24.8693 5.01048C24.6784 4.99859 24.6798 5.09368 24.7088 5.25638C24.8752 6.19394 25.0186 7.11738 25.1598 8.19312Z" fill="white"/>
<path d="M30.855 17.3869C30.5066 17.8066 30.225 18.2747 29.994 18.8177C29.7808 19.3192 29.65 19.7961 29.5594 20.1572C29.809 20.2969 30.0282 20.4885 30.1968 20.7129C30.9828 19.8333 31.8892 19.1647 32.8914 18.7256C33.713 18.366 34.4158 18.2405 34.8608 18.1989C35.9559 18.0956 37.2002 18.2806 38.3644 18.7189C38.0509 18.0377 37.672 17.453 37.2136 16.9991C36.3028 16.0979 35.525 15.6388 34.8467 15.2607C33.9181 15.4375 33.0741 15.7309 32.3877 16.1195C31.7881 16.4582 31.2718 16.8847 30.855 17.3869Z" fill="white"/>
<path d="M46.4558 16.7364C45.8503 16.9957 45.184 17.5871 44.6112 18.1324L44.4611 18.2757L44.2523 18.2646C43.7524 18.2364 43.2427 18.1888 42.82 18.1428L43.401 19.0261C43.5882 19.3076 43.7769 19.5899 43.9582 19.8641L44.2939 19.9228L44.8244 20.0104C45.1134 20.0298 45.3519 20.0171 45.4091 20.0023C45.6 19.9384 46.0873 19.5781 46.7047 18.9384L47.1668 18.4719C47.4885 18.1502 47.8532 17.7862 47.9476 17.622C48.1801 17.2208 48.065 17.018 47.9052 16.8583C47.6125 16.5655 46.886 16.5522 46.4558 16.7364Z" fill="white"/>
<path d="M28.5847 3.71483C28.5847 3.71483 28.5862 3.71533 28.5877 3.71533L28.5899 3.71483H28.5847Z" fill="white"/>
<path d="M41.5729 9.77697C41.6598 9.77697 41.7415 9.75691 41.8158 9.72422C41.7824 9.79554 41.7631 9.87355 41.7631 9.95601C41.7631 10.2688 42.0246 10.5229 42.3462 10.5229C42.6687 10.5229 42.9302 10.2688 42.9302 9.95601C42.9302 9.89658 42.9183 9.83938 42.9005 9.78514H44.3491V11.9998C42.9123 12.2754 41.8255 13.5376 41.8255 15.0546C41.8255 15.8629 42.1353 16.5991 42.6404 17.1519C43.0423 17.1987 43.5743 17.2544 44.1055 17.2893C44.705 16.7277 45.39 16.1452 46.0764 15.851C46.6158 15.62 47.3557 15.5739 47.9589 15.7923C48.0169 15.5553 48.0518 15.3094 48.0518 15.0546C48.0518 13.5272 46.9508 12.2598 45.4999 11.9953V9.78514H46.9456C46.9278 9.83938 46.9159 9.89658 46.9159 9.95601C46.9159 10.2688 47.1774 10.5229 47.4998 10.5229C47.8215 10.5229 48.083 10.2688 48.083 9.95601C48.083 9.87355 48.063 9.7948 48.0303 9.72422C48.1046 9.75691 48.1863 9.77697 48.2732 9.77697C48.5956 9.77697 48.8571 9.52364 48.8571 9.21087C48.8571 8.8981 48.5956 8.64477 48.2732 8.64477C48.1863 8.64477 48.1046 8.66483 48.0303 8.69752C48.063 8.62694 48.083 8.54819 48.083 8.46573C48.083 8.15296 47.8215 7.89889 47.4998 7.89889C47.1774 7.89889 46.9159 8.15296 46.9159 8.46573C46.9159 8.52516 46.9278 8.58088 46.9456 8.63511H45.4999V7.25701C45.5601 7.27855 45.6232 7.29267 45.6908 7.29267C46.0133 7.29267 46.274 7.02299 46.274 6.69091C46.274 6.35957 46.0133 6.09064 45.6908 6.09064C45.6054 6.09064 45.5252 6.11069 45.4516 6.14487C45.4858 6.06835 45.5058 5.9844 45.5058 5.89451C45.5058 5.56243 45.2451 5.29349 44.9227 5.29349C44.601 5.29349 44.3402 5.56243 44.3402 5.89451C44.3402 5.9844 44.3603 6.06835 44.3945 6.14487C44.3216 6.11069 44.2407 6.09064 44.1552 6.09064C43.8336 6.09064 43.572 6.35957 43.572 6.69091C43.572 7.02299 43.8336 7.29267 44.1552 7.29267C44.2236 7.29267 44.2882 7.27781 44.3491 7.25552V8.63511H42.9012C42.9183 8.58088 42.9302 8.52516 42.9302 8.46573C42.9302 8.15296 42.6687 7.89889 42.3462 7.89889C42.0246 7.89889 41.7631 8.15296 41.7631 8.46573C41.7631 8.54819 41.7824 8.62694 41.8158 8.69752C41.7415 8.66483 41.6598 8.64477 41.5729 8.64477C41.2504 8.64477 40.9889 8.8981 40.9889 9.21087C40.9889 9.52364 41.2504 9.77697 41.5729 9.77697Z" fill="white"/>
<path d="M33.3216 27.5446L33.5913 26.6412C33.8707 25.7222 34.0727 25.0581 34.4353 23.5403L34.7599 22.1823L35.4308 23.4066C35.8111 24.0997 36.0236 24.414 36.2101 24.6911L36.4656 25.0818C36.7814 25.5959 37.0889 25.6673 37.3207 25.6725C37.4775 25.6762 38.0949 25.6153 39.47 24.6851C40.5413 23.96 42.0457 22.8286 43.7321 21.4817C43.4015 20.9691 42.9498 20.2901 42.5048 19.6229C42.5048 19.6229 42.0041 18.8607 41.6549 18.3295C41.0227 18.8911 40.1483 19.588 39.0116 20.1155C37.7992 19.4491 36.2086 19.0776 34.9546 19.1957C34.1864 19.2678 32.2563 19.6734 30.5862 21.813C30.5877 21.8487 30.5914 21.8843 30.5914 21.9207C30.5914 23.0307 29.6888 23.9333 28.5796 23.9333C27.4697 23.9333 26.5663 23.0307 26.5663 21.9207C26.5663 21.8843 26.57 21.8487 26.5723 21.8123C25.3249 20.2143 23.9394 19.5754 22.9357 19.3258V25.4206C22.9357 26.1932 23.0687 26.8797 23.1838 27.4384C26.5359 27.9599 29.9406 27.9963 33.3216 27.5446Z" fill="white"/>
<path d="M28.5793 20.8717C28.0005 20.8717 27.5295 21.3427 27.5295 21.9207C27.5295 22.5002 28.0005 22.9705 28.5793 22.9705C29.158 22.9705 29.6283 22.5002 29.6283 21.9207C29.6283 21.3427 29.158 20.8717 28.5793 20.8717Z" fill="white"/>
<path d="M5.8616 36.7239C5.8616 37.0597 5.75908 37.3568 5.59415 37.625C5.51243 37.0961 5.35419 36.6065 4.93964 36.4899C4.5615 37.6904 3.6128 38.8263 2.71759 39.5098V40.3374C4.79552 39.6257 6.58817 37.9623 6.58817 36.4066V34.8257C6.58668 31.3905 4.86981 31.1825 3.76881 30.0949C3.26958 30.2821 2.65221 30.8601 2.66113 31.8875C2.37065 31.5666 2.0876 31.0978 2.098 30.574C2.15743 27.7532 6.57257 27.5742 6.57257 24.1701V22.1071C6.57257 19.521 5.14692 19.573 4.12838 18.3435C3.4085 18.7223 2.8684 19.3271 2.77554 20.2097C2.58015 19.891 2.46872 19.5299 2.4338 19.0292C2.3075 17.2454 4.18039 15.7336 6.18402 15.0197C6.68549 12.9529 6.80658 11.4388 6.26203 9.66624C3.36095 10.0971 1.36475 12.0948 1.36697 15.7752C1.36772 16.5152 1.36697 17.1838 1.36697 18.125C1.36697 22.11 5.77913 22.2787 5.77988 24.4874C5.77988 24.8796 5.65655 25.2206 5.46265 25.5245C5.35567 24.705 4.57042 24.2355 3.88619 23.8997C2.92412 25.5074 1.17456 25.2786 1.17456 28.3134V29.9047C1.17456 33.8897 5.8616 33.8503 5.8616 36.7239Z" fill="white"/>
<path d="M42.4847 56.7014C42.218 56.5832 41.8079 56.4406 41.3741 56.2898C40.36 55.9369 39.2471 55.5498 38.4998 55.0409C37.8007 55.3433 36.8616 55.8106 36.7717 57.7563H35.6953C35.7123 57.3135 35.7651 56.925 35.8461 56.584C35.2881 56.4904 34.5891 56.3321 33.9152 56.0038C33.835 56.1412 33.7503 56.2653 33.6716 56.3774C33.5022 56.6181 33.3551 56.8254 33.2637 57.1776C33.2236 57.3313 33.2028 57.4859 33.2028 57.6404C33.2028 57.679 33.2087 57.7177 33.211 57.7563H23.9468C23.9498 57.7177 23.955 57.679 23.955 57.6404C23.955 57.4859 23.9349 57.3313 23.8948 57.1776C23.8027 56.8254 23.6564 56.6181 23.4862 56.3767C23.4075 56.2653 23.3228 56.1412 23.2433 56.0038C22.5695 56.3321 21.8696 56.4904 21.3117 56.584C21.3934 56.925 21.4462 57.3135 21.4625 57.7563H20.386C20.2962 55.8106 19.3579 55.3433 18.658 55.0409C17.9107 55.5498 16.7978 55.9369 15.7844 56.2898C15.3498 56.4406 14.9398 56.5832 14.673 56.7014C14.283 56.8737 13.9821 57.2496 13.7964 57.7563H0.265739V64.5547H56.9195V57.7563H43.3614C43.1756 57.2489 42.874 56.8737 42.4847 56.7014Z" fill="white"/>
<path d="M21.6794 23.7818V19.1743C20.7181 19.1728 19.6431 19.4202 18.626 19.8808C17.7709 21.3949 17.0154 24.1852 17.0154 24.6421C17.0154 25.4133 17.3081 26.4065 17.9663 27.8612C18.5228 29.0937 19.1661 30.3826 19.4789 31.0015C19.9618 30.8544 20.7872 30.601 20.7872 30.601C21.4431 30.4049 22.1623 30.1902 22.6571 30.0312C22.2982 28.665 21.9855 27.223 21.7775 25.885C21.6467 25.0433 21.6794 24.4423 21.6794 23.7818Z" fill="white"/>
<path d="M36.2407 55.5579C36.6523 54.8313 37.2273 54.4561 37.7221 54.2132C37.2763 53.3536 37.1522 51.8299 37.0438 49.9556L36.9702 48.8635C36.8982 48.0715 36.8751 47.42 36.8751 46.8524C36.8751 46.3049 36.8967 45.8361 36.9167 45.3956C36.9353 45.004 36.9524 44.6266 36.9524 44.2292C36.9524 44.0197 36.9479 43.805 36.9353 43.5806C36.8937 42.8006 36.6998 42.0762 36.4331 41.074C36.2266 40.3014 35.9777 39.3668 35.7348 38.1536C34.1954 38.5035 32.4288 38.8074 29.7773 38.8772C30.2959 40.5614 31.0084 42.1104 31.3776 42.9127C31.5522 43.2916 31.6242 43.4499 31.6577 43.5598C31.7037 43.7077 31.7186 43.8837 31.7186 44.1475C31.7186 44.3035 31.7134 44.4907 31.7067 44.721C31.6978 44.981 31.6896 45.2737 31.6896 45.5835C31.6896 46.1934 31.7238 46.8695 31.8679 47.4943C32.1294 48.6272 32.509 49.4912 32.911 50.4043L33.4778 51.7519C33.7831 52.5401 34.1932 53.9027 34.1932 54.9093C34.1932 54.9175 34.1925 54.9264 34.1925 54.9346C34.8745 55.3186 35.6486 55.4672 36.2407 55.5579Z" fill="white"/>
<path d="M25.7769 42.9222C26.1439 42.128 26.8608 40.579 27.3824 38.871C25.8735 38.822 24.4011 38.6764 22.9353 38.4342V48.491C22.9353 48.9843 22.7823 49.2287 22.3335 49.2287C21.8321 49.2287 21.6813 48.9167 21.6813 48.517V38.2009C21.5958 38.1831 21.5104 38.1675 21.425 38.1497C21.1813 39.3666 20.9317 40.3019 20.7251 41.0738C20.4577 42.076 20.2645 42.8003 20.2229 43.5804C20.211 43.8055 20.2058 44.0202 20.2058 44.2289C20.2058 44.6264 20.2237 45.0038 20.2415 45.3953C20.2615 45.8351 20.2831 46.3039 20.2831 46.8514C20.2831 47.419 20.2601 48.0705 20.188 48.8632L20.1145 49.9553C20.0052 51.8289 19.8812 53.3534 19.4362 54.2137C19.931 54.4551 20.5052 54.831 20.9175 55.5576C21.5096 55.467 22.2838 55.3191 22.9658 54.9351C22.9658 54.9254 22.965 54.9172 22.965 54.9083C22.965 53.9017 23.3758 52.5406 23.6804 51.7517L24.2473 50.404C24.6492 49.4902 25.0281 48.6277 25.2896 47.494C25.4345 46.8693 25.4686 46.1932 25.4686 45.5825C25.4686 45.2727 25.4597 44.98 25.4515 44.72C25.4449 44.4897 25.4397 44.3025 25.4397 44.1465C25.4397 43.8835 25.4545 43.7074 25.4998 43.5588C25.534 43.4489 25.6046 43.2936 25.7769 42.9222Z" fill="white"/>
<path d="M22.2513 31.2259C21.8835 31.3381 21.4786 31.4592 21.079 31.578L20.2424 31.8343C20.1785 32.0498 20.0953 32.3232 20.0953 32.3232C19.946 32.8566 19.8286 33.2786 19.8286 33.4754C19.8286 33.8907 20.1674 34.9167 20.4393 35.7413L20.8004 36.8787C20.9475 37.395 21.1889 37.404 21.2684 37.4062C21.5626 37.4166 21.9088 37.164 21.9861 36.95C22.047 36.7829 22.0849 36.6655 22.0893 36.089C22.0923 35.6826 22.0611 34.9917 22.0611 34.9917C22.0611 34.9917 22.3657 34.9731 22.5306 34.9271C22.6963 34.881 22.8033 34.8156 22.9058 34.6968C23.1183 34.4494 23.2364 34.0088 23.2364 33.4851C23.2364 33.387 23.2319 33.286 23.223 33.1827C23.1435 32.2065 22.723 31.6865 22.2513 31.2259Z" fill="white"/>
<path d="M30.2034 20.7217L30.2029 20.7207L30.2019 20.7217H30.2034Z" fill="white"/>
<path d="M26.9597 20.7153C27.1343 20.4813 27.3579 20.2859 27.6068 20.1485C27.4174 19.3922 27.112 18.4123 26.4271 17.5297C26.0556 17.0505 25.6002 16.636 25.0735 16.2972C24.468 15.9079 23.7489 15.6063 22.9354 15.3998V18.309L22.9376 18.2994C23.9851 18.5193 25.5333 19.1166 26.9597 20.7153Z" fill="white"/>
<path d="M19.9615 16.9994C19.5024 17.4533 19.1235 18.0394 18.81 18.7222C19.7735 18.3604 20.7661 18.1702 21.6813 18.1709V15.6421C21.1635 15.9622 20.5952 16.3723 19.9615 16.9994Z" fill="white"/>
<path d="M39.7389 25.806C38.7218 26.4515 37.9002 26.7725 37.2969 26.7591C36.5741 26.7435 35.9834 26.3706 35.5407 25.6514L35.3104 25.2993L35.291 25.2711L35.1685 25.0876C34.9701 25.8424 34.8052 26.3847 34.6306 26.9575L34.3186 28.002C37.311 31.4892 37.8808 35.5626 37.9863 37.1532L38.0153 37.6042L38.0161 37.6123L38.0079 37.6146L37.0376 37.8523L36.9017 37.8857L36.794 37.9125C37.0347 39.1145 37.2828 40.0454 37.4826 40.7942V40.7957C37.7568 41.8209 37.9722 42.63 38.0205 43.5222C38.0532 44.1373 38.0361 44.6633 38.0153 45.1484C38.5636 45.0125 39.0955 44.8565 39.5732 44.693C39.8057 41.312 39.834 36.7327 39.834 32.9862C39.834 30.9529 39.886 28.3564 39.7389 25.806Z" fill="white"/>
<path d="M23.3892 28.5678C23.5021 29.1391 23.6366 29.7304 23.7673 30.2341L23.8855 30.6836L23.8877 30.6925L23.8795 30.6955L23.4427 30.8544L23.3498 30.8871C23.8855 31.5223 24.1797 32.2459 24.2495 33.0995C24.2599 33.2258 24.2651 33.3536 24.2651 33.4784C24.2651 34.2622 24.06 34.933 23.6871 35.3676C23.5304 35.5497 23.3387 35.6908 23.1158 35.7881C23.118 35.9025 23.1188 35.9991 23.1188 36.0838C23.1188 36.7405 23.0705 36.9805 22.9546 37.3007C22.9524 37.3074 22.9487 37.3148 22.9457 37.3208V37.3356C24.8052 37.6528 26.6484 37.8074 28.5792 37.8074C32.6325 37.8074 34.6443 37.3126 36.7735 36.7881H36.7757L36.8612 36.7666L36.8634 36.7762C36.6896 35.0445 36.0143 31.5877 33.4274 28.625C30.0932 29.0655 26.7026 29.0484 23.3892 28.5678Z" fill="white"/>
<path d="M30.6202 44.6878C30.6299 44.3706 30.6418 43.9768 30.6202 43.881C30.6135 43.8661 30.3906 43.3661 30.3906 43.3661C30.0036 42.5244 29.1975 40.7734 28.6515 38.9027H28.5794H28.5386L28.5044 38.902C27.9532 40.8053 27.1493 42.5422 26.763 43.378L26.6516 43.6262L26.575 43.7963C26.552 43.8475 26.5431 43.8654 26.5386 43.8735L26.5401 43.8721C26.5305 43.9122 26.526 43.9998 26.526 44.1417C26.526 44.3015 26.532 44.4991 26.5372 44.687C26.5461 44.9686 26.555 45.2702 26.555 45.5897C26.555 45.7613 26.552 45.927 26.5468 46.0837C27.4517 46.1164 28.1708 46.1201 28.5869 46.1201C29.0007 46.1201 29.7139 46.1164 30.6113 46.0845C30.5942 45.5704 30.6083 45.0808 30.6202 44.6878Z" fill="white"/>
<path d="M13.925 9.0406C13.8314 9.0406 13.7549 8.96482 13.7549 8.87047V8.36752C13.7549 8.27391 13.8314 8.19739 13.925 8.19739H17.0527C17.1463 8.19739 17.222 8.27391 17.222 8.36752V8.87047C17.222 8.96482 17.1463 9.0406 17.0527 9.0406H13.925ZM18.1054 5.32009C19.2316 5.32009 19.3564 6.03106 19.3564 6.32525C19.3564 6.78586 19.0645 7.28955 19.0192 7.71376C18.9828 8.05252 19.1395 8.41358 19.323 8.64834C18.9865 8.60228 18.595 8.46855 18.3156 8.2219C17.8134 7.77913 17.9791 7.49757 17.8914 7.17291C17.8416 6.98719 17.7087 6.82449 17.4093 6.82449C16.8394 6.82449 16.7793 7.4998 16.7793 7.74942H16.4115C16.4115 7.42551 16.2919 5.32009 18.1054 5.32009ZM18.8817 10.2946C18.8817 10.6379 18.5541 11.1378 17.7666 11.1378C16.4145 11.1378 16.4086 9.785 16.4086 9.48783H16.8082C16.7956 9.83774 17.0549 10.2664 17.7384 10.2664C18.332 10.2664 18.5162 9.89123 18.5571 9.70105C18.719 9.82288 18.8817 9.98855 18.8817 10.2946ZM15.783 9.48783C15.783 10.2255 16.0148 10.6423 16.0148 11.1995C16.0148 11.7559 15.7117 12.218 15.4903 12.5709H15.4844C15.2622 12.218 14.9591 11.7559 14.9591 11.1995C14.9591 10.6423 15.1909 10.2255 15.1909 9.48783H15.4866H15.4881H15.783ZM14.1664 9.48783H14.5661C14.5661 9.785 14.5594 11.1378 13.2073 11.1378C12.4206 11.1378 12.093 10.6379 12.093 10.2946C12.093 9.98855 12.2549 9.82288 12.4176 9.70105C12.4577 9.89123 12.642 10.2664 13.2356 10.2664C13.9198 10.2664 14.1791 9.83774 14.1664 9.48783ZM14.9398 6.14918C14.7221 5.51325 14.4116 5.15591 14.4116 4.6641C14.4116 3.87884 15.2526 3.20724 15.4873 2.97323C15.7214 3.20724 16.5623 3.87884 16.5623 4.6641C16.5623 5.15591 16.2518 5.51325 16.0341 6.14918C15.8165 6.78883 15.8328 7.54511 15.8328 7.74942H15.1419C15.1419 7.54511 15.1582 6.78883 14.9398 6.14918ZM11.9555 7.71376C11.9095 7.28955 11.6183 6.78586 11.6183 6.32525C11.6183 6.03106 11.7431 5.32009 12.8693 5.32009C14.682 5.32009 14.5632 7.42551 14.5632 7.74942H14.1947C14.1947 7.4998 14.1352 6.82449 13.5654 6.82449C13.266 6.82449 13.1323 6.98719 13.0825 7.17291C12.9949 7.49757 13.1605 7.77913 12.6591 8.2219C12.3797 8.46855 11.9875 8.60228 11.6517 8.64834C11.8344 8.41358 11.9919 8.05252 11.9555 7.71376ZM15.4859 2.97248C15.4866 2.97248 15.4866 2.97323 15.4873 2.97323L15.4881 2.97248H15.4859ZM7.41114 17.9905C8.26326 21.7273 12.9421 21.4718 12.9421 24.4501C12.9421 24.7993 12.8047 25.1826 12.5447 25.4367C12.3738 24.2718 11.4719 23.5839 10.6317 23.4858C9.78103 24.6648 8.13177 24.93 8.18971 27.9232C8.20457 28.6713 8.2016 29.487 8.18971 30.1356C8.12805 33.6013 13.1628 34.2038 13.1628 36.8612C13.1628 37.2691 13.0996 37.6531 12.9458 37.9414C12.8782 37.5269 12.6323 36.9979 12.3173 36.8597C11.859 37.772 11.0351 38.9941 9.85161 39.7422V40.5698C12.2237 39.7615 13.8492 38.7995 13.8492 36.7743V34.6094C13.8492 31.5992 12.7037 32.0271 11.0172 30.0546C10.4838 30.2106 9.83898 30.9892 9.7736 32.0234C9.45267 31.6363 9.25356 31.2151 9.23648 30.7611C9.13396 28.0696 13.717 27.1825 13.717 24.2777C13.717 23.2488 13.7155 22.1278 13.717 21.1516C13.7222 18.437 11.9645 17.7015 10.836 16.6198C9.94299 16.7587 8.97274 17.9288 9.0188 19.1591C8.70232 18.7534 8.46533 18.2423 8.46533 17.6205C8.46533 15.9668 9.64359 14.9638 11.2453 14.4133C13.012 13.8064 15.7548 13.8614 17.9278 14.3168C19.2027 14.5842 20.0265 14.7699 21.681 14.7187V1.81874C20.2412 1.96138 19.0518 1.69467 17.8454 1.44654C15.8417 1.03423 14.3908 0.979992 12.824 1.34699C10.7015 1.844 9.12355 3.07203 8.23577 4.90331C7.54561 6.32822 7.30862 7.53248 7.49583 9.46108C7.60653 10.6044 7.78854 12.5679 7.44531 14.2722C7.13329 15.8219 7.10432 16.6428 7.41114 17.9905Z" fill="white"/>
</g>
</g>
<defs>
<clipPath id="clip0_66_3114">
<rect width="190" height="64.0762" fill="white" transform="translate(0 0.961914)"/>
</clipPath>
</defs>
</svg>
