<svg width="1184" height="1421" viewBox="0 0 1184 1421" fill="none" xmlns="http://www.w3.org/2000/svg">
<path fill-rule="evenodd" clip-rule="evenodd" d="M79.4079 1.6337C77.0769 3.9657 77.4949 6.8367 80.5869 9.7397C84.1709 13.1047 100.655 24.7867 129.273 44.2437C141.958 52.8687 154.696 61.5557 157.579 63.5487L162.822 67.1717L160.721 71.2907C158.79 75.0757 158.576 77.5617 158.083 102.011C157.559 127.981 157.612 128.969 160.319 143.588C161.844 151.824 163.401 158.908 163.78 159.329C164.158 159.75 178.501 157.505 195.653 154.341L226.837 148.588V145.931C226.837 144.469 227.715 140.414 228.787 136.918C231.079 129.447 232.819 119.291 232.829 113.315L232.837 109.066L237.636 112.514C243.273 116.564 251.026 120.063 254.363 120.063C257.433 120.063 259.837 116.545 259.837 112.053C259.837 109.085 258.986 107.656 254.757 103.525C251.963 100.796 248.283 96.8227 246.58 94.6957L243.483 90.8277L248.744 85.9657C253.602 81.4757 253.951 80.8527 253.299 77.8327C252.911 76.0347 251.798 72.9877 250.826 71.0627L249.06 67.5627L257.855 60.0627C267.842 51.5467 269.586 49.0207 267.022 46.7867C263.795 43.9767 260.932 43.0627 255.353 43.0627C248.91 43.0627 246.065 44.3067 236.634 51.2487C230.573 55.7097 229.71 56.0637 227.634 54.9337C226.33 54.2247 220.225 53.4957 213.51 53.2477L201.683 52.8107L202.353 50.1867C204.095 43.3587 206.837 27.6187 206.837 24.4507C206.837 20.0527 202.371 15.1387 198.164 14.9067C193.39 14.6447 190.39 15.1347 189.174 16.3757C188.534 17.0287 185.934 23.4127 183.395 30.5627C180.856 37.7127 177.994 45.7097 177.034 48.3337L175.289 53.1037L137.813 29.9347C117.201 17.1917 97.8619 5.2587 94.8369 3.4167C88.6649 -0.3413 82.1379 -1.0953 79.4079 1.6337ZM559.337 106.732C551.964 110.637 540.724 122.451 536.474 130.763C533.084 137.392 535.259 143.494 542.632 148.034C548.728 151.788 550.84 155.443 550.827 162.217C550.803 175.74 539.295 187.983 526.555 188.041C517.332 188.083 511.496 183.642 510.301 175.669C509.538 170.581 511.222 165.972 515.712 160.858C521.501 154.265 519.079 149.314 507.498 144.063C497.429 139.498 477.218 135.172 472.682 136.612C470.22 137.394 470.297 139.028 473.788 159.91C475.411 169.619 477.928 185.888 479.382 196.063C480.836 206.238 482.138 214.68 482.275 214.824C482.413 214.967 484.508 214.382 486.931 213.524C507.514 206.235 528.176 202.607 555.555 201.474C585.662 200.228 614.877 203.707 639.155 211.429C646.537 213.777 650.097 214.504 650.363 213.717C650.576 213.082 651.696 205.813 652.851 197.563C654.005 189.313 656.538 172.717 658.478 160.683C662.745 134.217 663.047 135.197 651.168 136.954C633.941 139.503 618.798 145.408 614.513 151.249C612.808 153.573 612.706 154.334 613.762 156.882C614.433 158.502 616.307 161.097 617.926 162.648C625.152 169.572 623.313 182.237 614.47 186.433C600.345 193.136 581.713 179.64 581.518 162.563C581.442 155.896 583.849 151.652 589.778 148.004C595.552 144.452 598.335 139.53 597.397 134.531C596.701 130.822 590.031 121.257 583.785 115.011C574.521 105.747 566.394 102.995 559.337 106.732ZM198.373 179.715C182.443 182.708 169.203 185.364 168.951 185.616C168.412 186.155 170.327 199.384 172.489 210.063C177.18 233.236 195.319 268.188 215.304 292.563C237.597 319.753 261.595 356.408 270.636 377.078L273.91 384.563L281.124 387.451C310.245 399.108 351.918 423.998 388.992 451.877C396.443 457.479 402.737 462.063 402.98 462.063C403.223 462.063 402.643 453.626 401.691 443.313C400.738 433.001 399.636 418.503 399.241 411.095L398.524 397.628L393.93 393.095C391.404 390.603 387.987 385.934 386.337 382.722C384.687 379.509 380.413 373.209 376.839 368.722C368.29 357.986 348.52 337.683 339.51 330.385C319.32 314.032 305.512 294.174 300.345 274.063C296.031 257.274 288.366 246.027 246.889 195.632C241.941 189.62 236.643 182.309 235.115 179.385C232.843 175.035 231.882 174.086 229.837 174.17C228.462 174.226 214.303 176.721 198.373 179.715ZM499.837 228.965L487.337 232.763L486.662 250.275C485.293 285.765 478.866 317.022 468.74 337.43C463.578 347.831 459.556 353.155 449.862 362.417C445.123 366.944 442.327 370.299 443.071 370.564C443.767 370.811 448.387 372.409 453.337 374.114C490.817 387.027 522.246 411.687 541.873 443.584C550.051 456.876 559.117 478.879 563.803 496.813C564.414 499.15 565.459 501.061 566.126 501.059C566.803 501.057 568.631 496.541 570.273 490.809C584.715 440.414 613.049 405.23 656.592 383.622C667.469 378.224 685.511 371.063 688.234 371.063C691.362 371.063 690.502 369.327 685.243 365.024C679.392 360.236 674.052 354.272 669.16 347.063C655.779 327.345 647.349 292.782 645.989 252.063L645.337 232.563L633.337 228.895C626.737 226.877 620.371 225.189 619.191 225.145L617.045 225.063L616.589 264.313C616.168 300.517 615.966 304.177 613.984 311.477C610.136 325.648 603.476 333.568 591.73 337.945C586.415 339.925 582.868 340.409 570.691 340.816C537.826 341.913 525.029 334.758 518.274 311.509C516.803 306.447 516.481 299.58 516.105 265.313C515.701 228.601 515.516 225.068 514 225.115C513.085 225.143 506.712 226.876 499.837 228.965ZM569.862 236.813C569.876 237.225 569.723 249.426 569.521 263.924L569.156 290.286L560.246 290.424L551.337 290.563V297.731C551.337 301.673 551.592 305.153 551.904 305.464C552.216 305.775 561.024 305.744 571.478 305.394L590.486 304.758L586.28 280.161C583.967 266.632 582.201 255.421 582.355 255.247C582.673 254.889 600.589 256.778 605.631 257.7L608.925 258.302L608.631 250.433L608.337 242.563L599.337 241.39C594.387 240.744 587.802 240.182 584.704 240.14C579.947 240.075 578.989 239.752 578.547 238.063C578.132 236.474 577.183 236.063 573.931 236.063C571.679 236.063 569.848 236.401 569.862 236.813ZM532.837 240.442L523.337 241.563V249.063C523.337 255.962 523.497 256.547 525.337 256.366C526.437 256.258 532.287 255.902 538.337 255.574C544.387 255.247 551.195 254.753 553.465 254.478L557.594 253.977L558.786 247.919C559.441 244.587 560.219 241.231 560.514 240.462C560.953 239.319 559.335 239.087 551.694 239.192C546.548 239.263 538.062 239.826 532.837 240.442ZM160.337 375.639C132.969 379.427 120.877 393.057 126.256 414.053C130.529 430.734 141.212 446.443 163.332 468.577C179.702 484.956 194.686 497.301 214.547 510.77L225.757 518.373L237.646 506.911C255.408 489.786 267.566 481.233 276.714 479.428L280.091 478.762L276.628 484.163C274.724 487.133 255.043 517.688 232.893 552.063C210.743 586.438 188.957 620.29 184.479 627.29L176.337 640.017L171.837 640.05C161.923 640.122 151.287 648.443 148.314 658.451C146.408 664.869 146.487 667.363 148.806 674.063L150.709 679.563L129.233 712.909C117.421 731.249 107.059 747.321 106.206 748.623C104.671 750.965 104.749 751.051 113.343 756.595C118.122 759.678 122.551 762.387 123.185 762.616C123.818 762.844 132.437 750.398 142.337 734.959C152.237 719.519 160.562 706.744 160.837 706.57C161.112 706.396 161.22 773.74 161.077 856.223C160.929 942.126 161.193 1005.96 161.696 1005.65C162.179 1005.35 162.847 1002.51 163.182 999.335C169.879 935.751 172.937 907.417 178.103 861.063L184.289 805.563L184.813 747.036L185.337 688.509L189.659 684.604C197.784 677.265 200.217 669.063 197.378 658.577L195.648 652.187L230.925 597.375C250.327 567.228 266.297 542.422 266.415 542.251C266.532 542.079 270.7 543.983 275.676 546.482C307.638 562.535 346.162 575.619 376.337 580.671C390.155 582.985 412.263 582.98 420.777 580.663C432.761 577.401 439.956 572.441 444.133 564.563C447.297 558.595 447.008 546.863 443.47 537.667C432.749 509.8 399.175 475.225 352.837 444.33C302.93 411.055 245.036 386.113 199.032 378.066C188.076 376.15 166.447 374.793 160.337 375.639ZM705.337 390.048C647.164 405.107 612.046 436.529 594.847 488.911C589.469 505.29 589.097 507.693 591.808 508.554C592.995 508.93 596.608 511.825 599.839 514.986L605.712 520.733L613.525 512.826C638.983 487.061 671.194 468.992 704.337 461.885C716.173 459.347 740.121 458.428 753.837 459.985C766.584 461.432 784.136 465.239 796.129 469.158C801.018 470.756 805.207 472.063 805.44 472.063C806.326 472.063 798.369 457.214 793.383 449.563C783.809 434.871 770.985 421.961 751.479 407.378C740.001 398.797 720.59 387.032 718.075 387.132C717.119 387.169 711.387 388.482 705.337 390.048ZM427.837 425.904V461.591L440.587 465.356C456.376 470.019 479.536 481.307 492.782 490.797C497.977 494.518 507.733 502.874 514.463 509.366L526.699 521.169L528.945 518.13C530.181 516.459 533.819 513.178 537.03 510.84C540.242 508.501 542.698 506.133 542.488 505.576C542.279 505.019 540.932 500.464 539.495 495.453C525.91 448.091 497.009 415.852 452.337 398.231C446.837 396.061 439.074 393.371 435.087 392.252L427.837 390.217V425.904ZM1127.34 408.645C1115.11 410.53 1095.34 414.15 1064.51 420.144L1038.68 425.167L1034.01 422.872C1030.12 420.964 1027.74 420.581 1019.84 420.594C1008.2 420.613 1004.46 421.679 993.998 427.966L985.812 432.886L968.575 435.043C936.803 439.018 928.999 443.16 936.497 452.071L939.157 455.231L949.953 454.897L960.75 454.563L957.794 457.61C954.442 461.065 954.609 461.059 928.087 458.666C920.8 458.009 914.837 457.842 914.837 458.294C914.837 458.747 920.883 468.314 928.272 479.555C938.081 494.478 942.331 500.128 944.022 500.496C953.518 502.561 964.545 504.063 970.215 504.063C977.81 504.063 980.339 503.03 989.337 496.252C997.93 489.78 1037 450.354 1040.15 444.971L1042.8 440.442L1065.07 435.676C1077.32 433.055 1098.11 428.696 1111.29 425.99C1139.98 420.097 1138.66 420.47 1142.09 417.264C1145.41 414.151 1145.62 410.725 1142.61 408.62C1140.02 406.804 1139.26 406.806 1127.34 408.645ZM883.754 463.663C881.441 466.449 862.685 481.09 853.501 487.277C848.642 490.551 839.504 496.067 833.196 499.536L821.727 505.841L812.709 501.393C801.618 495.923 783.22 489.692 768.448 486.403C751.7 482.675 724.38 482.032 709.88 485.026C682.784 490.621 657.087 504.495 635.257 525.315C619.549 540.296 614.837 546.239 614.837 551.066C614.837 565.918 606.022 582.1 593.348 590.512C573.972 603.373 548.226 601.006 531.995 584.873C523.128 576.059 518.566 566.233 517.28 553.179C516.599 546.272 516.561 546.2 508.79 537.315C489.523 515.286 464.513 498.286 438.499 489.536C428.723 486.248 428.325 486.194 428.014 488.113C427.798 489.454 429.898 492.479 434.419 497.336C460.491 525.344 471.61 548.738 466.676 565.205C463.424 576.06 447.852 584.993 432.087 585.048L427.837 585.063V596.483V607.904L434.587 608.572C497.62 614.814 554.422 632.542 574.005 652.083C582.654 660.713 582.614 660.248 577.863 697.728C575.649 715.195 573.837 730.066 573.837 730.775C573.837 731.748 576.53 732.063 584.837 732.063C590.887 732.063 595.834 731.726 595.831 731.313C595.828 730.9 594.926 716.395 593.828 699.079L591.831 667.595L594.428 662.287C602.664 645.454 644.12 625.794 692.817 615.628L703.337 613.432L704.638 609.497C705.354 607.333 708.522 594.778 711.678 581.597L717.417 557.631L727.644 576.356C733.269 586.654 739.575 597.866 741.657 601.27L745.442 607.46L774.39 607.594C804.788 607.734 813.964 608.641 829.682 613.058L837.027 615.123L850.682 605.416C879.139 585.189 937.102 540.342 936.617 538.927C936.013 537.163 886.299 462.139 885.709 462.102C885.364 462.081 884.484 462.783 883.754 463.663ZM556.891 525.73C546.469 529.552 538.994 541.611 540.144 552.747C541.941 570.156 561.358 581.191 576.987 573.683C592.611 566.178 596.635 545.701 585.014 532.837C583.067 530.682 579.656 527.991 577.435 526.858C572.065 524.119 562.687 523.604 556.891 525.73ZM999.598 663.64L999.337 706.217L993.901 708.131C988.407 710.066 983.304 714.016 982.328 717.091C981.877 718.511 979.622 718.872 967.567 719.453C941.313 720.719 912.451 724.785 891.921 730.112C879.682 733.286 874.539 735.658 874.017 738.367C873.713 739.947 877.999 740.063 936.764 740.063H999.837V744.563V749.063H936.837C874.777 749.063 873.837 749.092 873.837 751.037C873.837 753.541 877.289 755.333 888.205 758.497C907.454 764.075 939.865 768.822 965.069 769.755C980.328 770.319 981.854 770.541 982.404 772.274C983.267 774.994 989.973 779.561 995.289 781.05L999.837 782.323L999.818 984.943L999.8 1187.56L965.987 1232.53L932.174 1277.51L938.756 1288.27C942.375 1294.2 945.602 1299.05 945.927 1299.05C946.251 1299.06 958.401 1283.55 972.927 1264.6L999.337 1230.13L999.592 1325.1L999.847 1420.06H1011.34H1022.84V1324.46V1228.85L1048.42 1262.21C1062.49 1280.55 1092.53 1319.74 1115.17 1349.28L1156.34 1403L1170.09 1403.03C1179.07 1403.05 1183.84 1402.7 1183.84 1402.01C1183.84 1401.43 1147.61 1352.76 1103.34 1293.86L1022.84 1186.76V984.412C1022.84 788.584 1022.9 782.063 1024.68 782.063C1028.1 782.063 1038.31 776.222 1040.06 773.26L1041.77 770.372L1058.05 769.758C1092.36 768.465 1135.54 760.789 1146.7 753.999C1153.84 749.657 1152.82 749.578 1086 749.306L1022.84 749.048V744.556V740.063H1086.41C1146.4 740.063 1149.96 739.964 1149.65 738.315C1148.32 731.438 1098.57 721.488 1055.29 719.442L1041.17 718.775L1040.13 716.025C1038.88 712.716 1035.35 710.267 1028.46 707.937L1023.34 706.201L1023.08 663.632L1022.82 621.063H1011.34H999.858L999.598 663.64ZM380.837 627.099C344.448 629.18 322.754 637.815 318.901 651.751C318.06 654.793 298.063 811.498 293.622 849.855C292.181 862.301 293.234 865.718 300.76 873.016C320.343 892.005 370.525 908.296 425.72 913.584C443.618 915.299 476.587 915.524 490.626 914.028C519.644 910.937 538.944 903.355 544.405 892.904C545.213 891.358 548.949 864.995 553.333 829.904C557.479 796.717 561.125 768.326 561.434 766.813C561.977 764.157 562.215 764.063 568.416 764.063H574.837V852.395V940.726L562.587 941.922C517.439 946.332 473.81 964.051 436.665 993.063C417.444 1008.07 394.114 1034.57 381.037 1056.23C374.077 1067.76 364.739 1087.25 360.345 1099.44C344.431 1143.55 342.054 1195.02 353.833 1240.38C362.247 1272.79 378.764 1305.54 399.901 1331.74C415.433 1350.99 439.815 1372.2 461.837 1385.63C490.456 1403.08 526.648 1415.38 560.048 1419.01C572.525 1420.36 600.149 1420.36 612.626 1419.01C722.048 1407.13 809.114 1321.68 824.286 1211.28C826.32 1196.48 826.327 1165.93 824.3 1150.36C809.817 1039.18 720.907 952.769 609.794 941.896L597.837 940.726V852.395V764.063H604.249H610.661L611.257 767.813C611.585 769.876 615.197 798.195 619.284 830.744C623.991 868.231 627.268 890.996 628.225 892.846C630.081 896.435 635.643 901.416 640.615 903.941C646.301 906.83 659.279 910.657 669.837 912.559C684.168 915.141 724.612 915.738 745.837 913.681C816.191 906.862 876.83 882.609 879.485 860.228C880.148 854.639 854.281 651.822 852.455 648.291C849.265 642.122 839.742 635.858 828.837 632.753C788.069 621.148 707.672 626.818 652.407 645.195C626.089 653.947 609.411 664.159 603.436 675.179L600.392 680.795L603.681 707.179C605.489 721.69 607.222 735.251 607.531 737.313L608.093 741.063H586.465C571.19 741.063 564.837 740.735 564.837 739.945C564.837 739.33 566.429 726.196 568.375 710.758C570.322 695.32 571.643 681.458 571.313 679.953C569.576 672.045 559.442 662.428 545.364 655.329C507.951 636.464 435.237 623.987 380.837 627.099ZM222.837 809.085C217.612 809.511 212.131 810.333 210.656 810.91C207.486 812.153 208.093 808.581 203.327 854.063C201.396 872.488 198.928 895.888 197.842 906.063C195.865 924.589 191.575 964.913 187.787 1000.56C186.677 1011.01 185.131 1025.41 184.352 1032.56C183.573 1039.71 181.318 1061.09 179.341 1080.06C177.364 1099.04 175.154 1118.84 174.429 1124.06C173.559 1130.34 173.445 1133.99 174.094 1134.81C177.45 1139.07 218.961 1146.77 280.337 1154.53C294.637 1156.34 306.674 1157.62 307.087 1157.38C307.5 1157.14 307.837 1155.34 307.837 1153.38C307.837 1147.96 310.661 1129.92 313.522 1117.06C328.807 1048.37 366.517 993.588 419.541 963.043C432.575 955.534 445.899 949.603 459.337 945.328C475.594 940.156 475.57 940.205 461.837 940.127C418.217 939.876 366.806 931.315 332.197 918.538C308.931 909.948 287.767 896.98 278.779 885.806C276.459 882.922 273.167 877.638 271.463 874.063C268.592 868.043 268.374 866.824 268.498 857.563C268.573 852.063 269.787 839.243 271.197 829.075C272.607 818.906 273.44 810.299 273.049 809.948C271.891 808.91 233.152 808.244 222.837 809.085ZM403.887 837.111C451.571 840.824 495.765 853.129 516.657 868.51C520.316 871.203 523.582 874.558 524.578 876.646C526.101 879.841 526.121 880.468 524.771 882.88C522.914 886.198 513.048 891.263 504.004 893.54C480.399 899.485 439.746 899.659 403.888 893.969C365.711 887.911 331.907 875.656 318.694 863.083C311.751 856.476 311.341 854.21 316.252 849.578C327.094 839.353 364.448 834.039 403.887 837.111ZM826.962 838.979C844.681 842.039 857.619 847.65 859.321 853.012C861.058 858.486 852.83 866.043 836.337 874.118C823.448 880.429 814.834 883.499 797.063 888.113C740.467 902.809 665.674 900.991 649.203 884.52C644.252 879.569 647.65 873.518 659.628 865.953C682.038 851.8 722.291 840.968 766.837 837.104C783.157 835.688 813.361 836.63 826.962 838.979ZM904.022 863.767C900.354 885.901 879.214 904.114 840.477 918.513C806.154 931.271 754.728 939.917 711.887 940.131C697.024 940.205 697.021 940.466 711.837 944.538C737.789 951.671 761.006 963.102 777.543 976.889L783.749 982.063H795.793H807.837V1008.91V1035.76L813.51 1045.16C816.631 1050.33 821.693 1059.74 824.76 1066.06L830.337 1077.56L830.597 1029.81L830.856 982.063H854.7C897.294 982.063 947.444 978.744 962.087 974.956L965.837 973.986V922.096C965.837 864.538 966.315 868.543 959.087 865.523C952.598 862.812 916.959 857.063 906.638 857.063C905.558 857.063 904.819 858.956 904.022 863.767ZM161.288 1158.33C160.977 1159.14 160.864 1165.82 161.037 1173.18L161.352 1186.56L80.8439 1293.99C36.5649 1353.07 0.186927 1401.79 0.00392719 1402.24C-0.180073 1402.69 6.12491 1403.06 14.0129 1403.06C26.5849 1403.06 28.4919 1402.85 29.4619 1401.31C30.0699 1400.35 59.2659 1362.21 94.3409 1316.56C129.416 1270.91 158.61 1232.78 159.216 1231.81C159.822 1230.85 160.547 1230.06 160.828 1230.06C161.108 1230.06 161.218 1272.81 161.072 1325.06L160.807 1420.06H172.817H184.827L185.082 1325.25L185.337 1230.44L251.379 1316.5L317.42 1402.56L331.629 1402.84C339.443 1402.99 345.837 1402.87 345.837 1402.56C345.837 1402.26 309.725 1353.98 265.587 1295.28L185.337 1188.56L184.837 1176.7L184.337 1164.84L174.837 1161.63C169.612 1159.87 164.553 1158.07 163.595 1157.64C162.428 1157.11 161.667 1157.34 161.288 1158.33ZM847.362 1223.19C846.37 1229.37 844.967 1236.67 844.244 1239.42C843.52 1242.16 843.245 1244.92 843.633 1245.56C844.02 1246.2 871.337 1281.9 904.337 1324.89L964.337 1403.05L978.637 1403.06C990.017 1403.06 992.773 1402.8 992.137 1401.78C990.475 1399.12 852.515 1215.48 850.879 1213.75C849.25 1212.04 849.074 1212.51 847.362 1223.19ZM824.621 1295.37C821.583 1301.59 816.564 1310.89 813.467 1316.02L807.837 1325.36V1372.71V1420.06H819.337H830.837V1352.06C830.837 1314.66 830.681 1284.06 830.49 1284.06C830.3 1284.06 827.658 1289.15 824.621 1295.37ZM862.082 1370.61L837.826 1403.06H852.267H866.709L884.72 1379.58L902.731 1356.09L895.23 1347.33C891.105 1342.51 887.416 1338.47 887.033 1338.36C886.65 1338.25 875.422 1352.76 862.082 1370.61Z" fill="white"/>
</svg>
