<?xml version="1.0" encoding="utf-8"?>
<!-- Generator: Adobe Illustrator 23.0.4, SVG Export Plug-In . SVG Version: 6.00 Build 0)  -->
<svg version="1.1" id="Lag_1" xmlns="http://www.w3.org/2000/svg" xmlns:xlink="http://www.w3.org/1999/xlink" x="0px" y="0px"
	 viewBox="0 0 465.65 261.05" style="enable-background:new 0 0 465.65 261.05;" xml:space="preserve">
<style type="text/css">
	.st0{fill:#FFFFFF;}
</style>
<path class="st0" d="M152.58,183.44c-4.1-4.1-8.99-7.4-14.45-9.79c-5.58-2.39-11.38-3.64-17.64-3.64H100.9v15.25h19.59
	c4.1,0,8.08,0.8,11.72,2.28c3.64,1.59,6.94,3.87,9.67,6.6c2.84,2.85,5.01,6.03,6.6,9.67c1.59,3.76,2.39,7.62,2.39,11.72
	s-0.8,7.97-2.39,11.72c-1.59,3.64-3.76,6.83-6.49,9.67c-2.73,2.85-6.03,5.01-9.67,6.6c-3.64,1.48-7.63,2.28-11.83,2.28H100.9v15.25
	h19.59c6.26,0,12.18-1.25,17.64-3.64c5.58-2.39,10.47-5.69,14.57-9.79c4.1-4.21,7.28-8.99,9.79-14.57
	c2.39-5.46,3.53-11.27,3.53-17.52c0-6.26-1.14-12.06-3.53-17.52C159.97,192.42,156.79,187.65,152.58,183.44z"/>
<path class="st0" d="M45.78,169.48c-12.71,0-23.46,4.58-32.28,13.51C4.58,191.91,0,202.67,0,215.26c0,12.7,4.58,23.35,13.51,32.28
	c8.93,8.93,19.57,13.51,32.28,13.51c12.7,0,23.35-4.58,32.28-13.51c9.04-8.81,13.62-19.57,13.62-32.28
	c0-12.59-4.58-23.35-13.62-32.28C69.13,174.06,58.49,169.48,45.78,169.48z M67.3,236.9c-5.95,5.95-13.16,8.81-21.52,8.81
	s-15.68-2.86-21.63-8.81c-5.95-5.95-8.81-13.28-8.81-21.63s2.86-15.57,8.81-21.52c6.07-6.07,13.28-8.93,21.63-8.93
	s15.57,2.98,21.52,8.93s8.93,13.16,8.93,21.52S73.37,230.83,67.3,236.9z"/>
<path class="st0" d="M368.33,208.02h-3.73h-2.37h-5.92c-3.3,0-5.92-1.14-8.19-3.41c-2.16-2.28-3.19-4.89-3.19-8.08
	c0-1.48,0.23-2.96,0.8-4.32c0.57-1.37,1.37-2.62,2.39-3.64c1.14-1.14,2.28-1.93,3.76-2.5c1.36-0.57,2.84-0.8,34.31-0.8v-15.25
	c-18.83,0-19.17,0-19.51,0c-17.99,0.09-24.11,2.71-29.14,7.85c-5.12,5.24-7.74,11.38-7.74,18.66c0,7.4,2.62,13.66,7.74,18.89
	c5.12,5.12,11.38,7.74,18.78,7.74h5.92h2.37h3.73c3.3,0,5.92,1.14,8.19,3.41c2.16,2.28,3.19,4.89,3.19,8.08
	c0,1.48-0.23,2.96-0.8,4.32c-0.57,1.37-1.37,2.62-2.39,3.64c-1.14,1.14-2.28,1.93-3.76,2.5c-1.35,0.56-2.82,0.79-15.43,0.8
	c-0.13,0-0.25,0-25.8,0v15.25c25.57,0,25.72,0,25.87,0c18.42-0.04,24.62-2.66,29.7-7.85c5.12-5.24,7.74-11.38,7.74-18.66
	c0-7.4-2.62-13.66-7.74-18.89C381.99,210.63,375.73,208.02,368.33,208.02z"/>
<path class="st0" d="M114.39,88.83C114.39,88.98,114.39,88.83,114.39,88.83c0,11.38-4.99,21.28-13.2,29.5
	c-8.1,8.1-17.84,12.29-29.22,12.41c-11.37-0.12-21.12-4.31-29.22-12.41c-8.22-8.22-13.2-18.12-13.2-29.5c0,0,0,0.15,0,0V0H1.53
	v88.83c0,8.12,1.84,31.13,20.44,49.72c13.7,13.69,30.34,20.44,49.51,20.44c0.16,0,0.33-0.01,0.49-0.01c0.16,0,0.33,0.01,0.49,0.01
	c19.17,0,35.82-6.74,49.51-20.44c18.54-18.54,20.44-41.6,20.44-49.72V0h-28.02V88.83z"/>
<polygon class="st0" points="268.23,95.35 162.76,0.38 162.76,40.43 294.6,158.99 294.6,158.79 294.6,158.59 294.6,0.38 
	268.23,0.38 "/>
<polygon class="st0" points="306.62,224.52 246.08,170.01 246.08,192.99 321.75,261.05 321.75,260.93 321.75,260.82 321.75,170.01 
	306.62,170.01 "/>
<path class="st0" d="M437.35,66.59C437.35,66.59,437.35,66.6,437.35,66.59L437.35,66.59l-0.79,0.01h-49.74v26.37h50.72
	c-2.16,9.05-6.74,17.17-13.93,24.36c-10.27,10.27-22.71,15.2-37.12,15.2s-27.05-4.94-37.32-15.2c-10.27-10.27-15.2-22.9-15.2-37.32
	c0-14.41,4.94-26.85,15.2-37.12c10.47-10.46,22.9-15.4,37.32-15.4s26.85,5.13,37.12,15.4c1.01,1.02,1.94,2.07,2.86,3.13
	c10.52,0,21.04,0,31.56,0c-3.85-7.81-9.13-15.05-15.86-21.68c-15.4-15.4-33.76-23.3-55.68-23.3c-21.92,0-40.48,7.9-55.68,23.3
	c-15.4,15.4-23.3,33.96-23.3,55.68c0,21.92,7.9,40.28,23.3,55.68c15.4,15.4,33.76,23.3,55.68,23.3c21.92,0,40.28-7.9,55.68-23.3
	c15.6-15.2,23.5-33.76,23.5-55.68c0-4.62-0.37-9.08-1.09-13.41L437.35,66.59z"/>
<path class="st0" d="M201.06,173.65c-5.58,2.39-10.47,5.69-14.57,9.79c-4.1,4.21-7.28,8.99-9.79,14.57
	c-2.39,5.46-3.53,11.27-3.53,17.52c0,6.26,1.14,12.06,3.53,17.52c2.5,5.58,5.69,10.36,9.9,14.57c4.1,4.1,8.99,7.4,14.45,9.79
	c5.58,2.39,11.38,3.64,17.64,3.64h19.59V245.8h-19.59c-4.1,0-8.08-0.8-11.72-2.28c-3.64-1.59-6.94-3.87-9.67-6.6
	c-2.84-2.85-5.01-6.03-6.6-9.67c-0.57-1.35-1.04-2.71-1.4-4.1h31.96v-15.13h-31.99c0.37-1.42,0.85-2.82,1.44-4.21
	c1.59-3.64,3.76-6.83,6.49-9.67c2.73-2.85,6.03-5.01,9.67-6.6c3.64-1.48,7.63-2.28,11.83-2.28h19.59v-15.25h-19.59
	C212.43,170.01,206.52,171.26,201.06,173.65z"/>
<path class="st0" d="M422.63,194.13c2.73-2.85,6.03-5.01,9.67-6.6c3.64-1.48,7.63-2.28,11.83-2.28h19.59v-15.25h-19.59
	c-6.26,0-12.18,1.25-17.64,3.64c-5.58,2.39-10.47,5.69-14.57,9.79c-4.1,4.21-7.28,8.99-9.79,14.57c-2.39,5.46-3.53,11.27-3.53,17.52
	c0,6.26,1.14,12.06,3.53,17.52c2.5,5.58,5.69,10.36,9.9,14.57c4.1,4.1,8.99,7.4,14.45,9.79c5.58,2.39,11.38,3.64,17.64,3.64h19.59
	V245.8h-19.59c-4.1,0-8.08-0.8-11.72-2.28c-3.64-1.59-6.94-3.87-9.67-6.6c-2.84-2.85-5.01-6.03-6.6-9.67
	c-0.57-1.35-1.04-2.71-1.4-4.1h31.96v-15.13H414.7c0.37-1.42,0.85-2.82,1.44-4.21C417.73,200.16,419.9,196.98,422.63,194.13z"/>
<polygon class="st0" points="189.52,84.77 162.76,60.78 162.76,157.1 189.52,157.1 "/>
<polygon class="st0" points="261.43,218.45 246.08,204.67 246.08,261.05 261.43,261.05 "/>
<rect x="100.9" y="194.12" transform="matrix(-1 -1.224647e-16 1.224647e-16 -1 216.0244 431.053)" class="st0" width="14.22" height="42.8"/>
</svg>
