<svg width="512" height="357" viewBox="0 0 512 357" fill="none" xmlns="http://www.w3.org/2000/svg">
<path fill-rule="evenodd" clip-rule="evenodd" d="M34 131V262H55H76V232.734V203.469L87.966 191.534C94.547 184.97 100.107 179.802 100.321 180.049C100.535 180.297 112.961 198.275 127.936 220C142.91 241.725 155.712 260.07 156.384 260.768C157.322 261.739 163.471 261.973 182.747 261.768L207.887 261.5L189.121 234.5C178.8 219.65 161.286 194.45 150.201 178.5L130.046 149.5L167.268 112.25L204.49 75H177.325H150.159L113.838 112C93.862 132.35 77.176 149 76.759 149C76.341 149 76 115.475 76 74.5V0H55H34V131ZM314.007 72.173C296.576 74.661 280.856 84.124 270.272 98.5L268.063 101.5L268.032 88.25L268 75H246.5H225V168.5V262H246.5H268L268.017 206.75C268.036 145.953 268.241 143.409 274.017 131.967C282.417 115.327 299.092 105.798 317.162 107.311C326.248 108.072 333.121 111.229 338.347 117.041C346.722 126.356 346.463 123.891 346.778 197.25L347.056 262H368.528H390L390.015 206.25C390.027 160.376 390.294 149.38 391.521 144.175C397.104 120.491 416.581 105.42 439.162 107.311C452.336 108.414 462.435 115.727 466.567 127.155C468.419 132.275 468.511 136.486 468.77 227.25L469.039 322H234.52H0V339.5V357H256H512L511.98 245.25C511.968 176.409 511.577 130.812 510.963 126.5C509.12 113.567 504.554 102.06 497.962 93.738C486.095 78.759 469.771 71.859 446 71.773C430.941 71.718 422.956 73.409 411.03 79.175C404.449 82.357 400.863 84.968 394.945 90.885C390.757 95.073 386.43 99.798 385.329 101.384L383.329 104.268L380.982 100.384C373.918 88.693 361.934 79.13 349.486 75.25C342.715 73.14 328.171 70.872 323.026 71.123C321.637 71.191 317.578 71.664 314.007 72.173Z" fill="white"/>
</svg>
