<svg width="128" height="128" viewBox="0 0 128 128" fill="none" xmlns="http://www.w3.org/2000/svg">
<path d="M57.2135 8.03062C56.2898 8.18143 55.4603 8.36994 55.3661 8.4642C55.2718 8.55845 55.2718 8.91663 55.3284 9.29365C55.4226 9.80264 55.5923 10.01 55.9882 10.142C56.5914 10.3682 56.5726 10.2551 56.9496 17.1546C57.1947 21.415 57.3455 22.0937 58.1372 22.4518C58.4388 22.6026 59.6642 22.5461 62.4919 22.2633C64.6409 22.0371 66.5826 21.8674 66.79 21.8674C67.1481 21.8674 67.1481 21.7732 67.0162 19.643C66.9408 18.4365 66.8654 17.3997 66.8277 17.3431C66.79 17.2866 66.3375 17.2866 65.8285 17.3054L64.886 17.3808L64.754 18.8701L64.6221 20.3593H63.6795C62.7935 20.3593 62.7558 20.3405 62.8877 19.9258C62.982 19.6995 63.0386 18.7004 63.0574 17.7202V15.9293L64.0565 15.8727L65.0368 15.8162V14.6851V13.5729H63.9057H62.7746V12.9319C62.7746 12.5926 62.7181 11.782 62.6615 11.1411L62.5296 9.99115L63.1705 10.01C64.3204 10.0289 64.5467 10.2174 64.754 11.3296L64.9425 12.3476H65.8851H66.8277L66.8842 10.01L66.9408 7.6913L64.3393 7.82325C62.9066 7.89866 61.6813 7.99292 61.6059 8.03062C61.1911 8.29454 61.2477 12.0459 61.7755 18.7004C61.8698 20.1143 61.8698 20.1708 61.4739 20.1708C61.2665 20.1708 61.078 20.1143 61.0592 20.02C61.0592 19.9446 60.9084 17.3997 60.7198 14.3458L60.3994 8.80352L59.7961 8.27568C59.4568 7.97406 59.1175 7.74785 59.0421 7.74785C58.9667 7.7667 58.1561 7.89866 57.2135 8.03062Z" fill="white"/>
<path d="M72.7658 8.78478C72.5019 9.48228 72.5208 9.70849 72.9543 10.0855C73.1617 10.274 73.3314 10.5568 73.3314 10.6888C73.3314 10.8396 72.6527 13.2714 71.8233 16.0991C70.1832 21.6225 70.1644 21.9053 71.1069 22.5085C71.352 22.6593 72.2191 22.8855 73.0297 23.0175L74.519 23.2437L75.5747 22.1315L76.6492 21.0192L77.7426 17.3244C78.3458 15.2885 78.9113 13.5164 79.0056 13.3656C79.2695 12.9321 80.1932 13.5353 80.2686 14.1951C80.3063 14.4779 79.7596 16.6835 79.0622 19.0776C77.8368 23.3568 77.818 23.4322 78.1196 24.0731C78.4589 24.8083 78.7228 24.9215 80.8342 25.2985L82.3988 25.6001L82.5873 25.1288C82.8513 24.4313 82.7947 24.1108 82.3611 23.6396L81.9464 23.206L83.2094 18.9079C84.6798 13.7992 84.7175 13.6484 84.5667 12.5362C84.4536 11.801 84.3405 11.6313 83.643 11.2354C82.2857 10.4248 81.2866 10.2552 79.7408 10.5568C78.8925 10.7076 78.3458 10.915 78.2327 11.1223C78.1384 11.2731 77.4221 13.6673 76.6303 16.4007C75.8386 19.153 75.1411 21.434 75.1034 21.4717C75.0468 21.5282 74.896 21.434 74.7452 21.2832C74.5001 21.0381 74.651 20.416 75.914 16.1179C76.7246 13.4222 77.3655 10.8584 77.3655 10.4248C77.3844 9.29376 76.9885 8.95444 75.1599 8.59627C73.124 8.20039 72.9732 8.20039 72.7658 8.78478Z" fill="white"/>
<path d="M44.3947 11.028C43.7726 11.2919 43.2448 11.4993 43.2071 11.4993C43.1128 11.4993 42.2268 13.5541 42.2268 13.7803C42.2268 13.9877 43.471 16.4195 46.1479 21.4716C46.9585 23.0174 47.1281 23.451 46.9208 23.5829C46.4872 23.8469 46.6191 24.0731 43.5464 18.2292C42.3399 15.9293 41.7932 15.081 41.1146 14.4966C40.1532 13.6483 39.8892 13.6295 37.9476 14.3647C37.005 14.704 36.8919 14.8171 36.3452 15.9293L35.7608 17.0981L36.2321 18.0218C36.4772 18.5308 37.5894 20.6987 38.7016 22.8289C39.8138 24.9591 40.7187 26.7688 40.7187 26.8442C40.7187 26.9008 40.549 26.9573 40.3605 26.9573C40.0777 26.9573 39.6065 26.2221 38.4 23.8846C37.514 22.2068 36.364 20.0201 35.8551 19.0398C34.9125 17.2678 34.4412 16.7776 33.6118 16.7776C33.0462 16.7776 30.162 18.6439 30.162 19.0209C30.1808 19.5676 30.8029 20.152 31.4439 20.2086C32.0471 20.2651 32.1225 20.3782 33.7814 23.5641C36.8165 29.4268 37.1181 29.9547 37.7025 30.2563C38.0041 30.4071 38.3623 30.5391 38.4754 30.5391C38.6073 30.5391 39.3803 30.1055 40.1909 29.5776L41.6613 28.5974V27.1081V25.6L39.8327 22.0748C38.8147 20.152 37.9664 18.4554 37.9287 18.3235C37.8156 17.9087 38.7959 18.0784 39.1729 18.5497C39.3614 18.8136 40.4359 20.7553 41.5481 22.8666C43.5841 26.7311 43.9046 27.1458 44.8471 27.1458C45.2241 27.1458 47.4863 25.7697 47.8445 25.2984C47.9764 25.1288 48.0707 24.4501 48.0707 23.6772C48.0707 22.3953 48.0518 22.3199 46.1856 18.7382C45.1487 16.7399 44.3004 15.0056 44.3004 14.9114C44.3004 14.5343 45.0733 14.704 45.4881 15.1564C45.7143 15.4015 46.4495 16.6457 47.1093 17.9276C50.0501 23.6395 50.1255 23.7526 51.3319 23.7526C51.7655 23.7526 54.6686 21.924 54.6686 21.6413C54.6686 21.547 54.5367 21.2265 54.3858 20.9249C54.1785 20.5102 53.9523 20.3782 53.4433 20.3217C52.7835 20.2651 52.7269 20.1897 51.709 18.2857C51.1434 17.1924 50.2009 15.4204 49.6165 14.327C49.0321 13.2336 48.1838 11.9517 47.7314 11.4616C46.7322 10.3871 46.1479 10.3117 44.3947 11.028Z" fill="white"/>
<path d="M90.6557 15.3072L89.7131 16.3063L90.241 16.7776C90.5426 17.0415 91.2778 17.6636 91.881 18.1914L92.9744 19.134H91.3343H89.6943L88.337 20.5479C86.2822 22.7158 85.3019 25.091 85.7544 26.8819C86.2068 28.635 87.2248 29.7473 89.4115 30.8406C91.636 31.9717 91.5417 31.9529 92.1826 31.0669C92.5031 30.6521 92.7482 30.1997 92.7482 30.0866C92.7482 29.9735 92.1826 29.5022 91.5228 29.0498C90.8442 28.5973 90.2975 28.2015 90.2975 28.1638C90.2975 28.1449 90.5426 27.9753 90.8442 27.7679C91.1458 27.5794 92.2203 26.2409 93.2195 24.7894C94.2186 23.3378 95.1423 22.0371 95.2742 21.9051C95.4628 21.7166 95.7455 21.7543 96.7635 22.1502C97.461 22.4141 98.2339 22.6215 98.4601 22.6215C98.9879 22.6215 100.383 21.2454 100.232 20.8683C100.176 20.7175 99.6477 20.4159 99.0256 20.1708C97.4798 19.5487 96.9332 19.134 94.3505 16.7211C93.1063 15.5523 91.9753 14.5155 91.8433 14.4401C91.6925 14.3458 91.2778 14.6474 90.6557 15.3072ZM94.4448 20.5479C94.4448 20.661 93.408 22.2256 92.1449 24.0353C90.3164 26.618 89.8074 27.2401 89.6943 26.9573C89.6189 26.7688 89.6566 26.3163 89.7508 25.9393C90.1656 24.4501 93.3703 20.3593 94.1243 20.3593C94.294 20.3593 94.4448 20.4536 94.4448 20.5479Z" fill="white"/>
<path d="M103.173 25.3927C102.607 25.4681 102.551 25.5435 102.551 26.0902C102.551 26.8442 102.57 26.8254 98.4035 29.8793C96.5938 31.1989 95.0103 32.4054 94.8972 32.5562C94.2185 33.3856 94.5201 35.1199 95.7643 37.4198C96.2356 38.3058 96.3487 38.3812 97.5363 38.7394C98.6297 39.0599 98.7805 39.173 98.6863 39.4934C98.3469 40.5491 98.3846 40.7376 99.0444 41.9441C99.6854 43.0752 99.7985 43.1694 100.364 43.1694C100.722 43.1694 101.25 43.1129 101.571 43.0563C102.079 42.9621 102.155 42.849 102.211 42.2646C102.268 41.6425 102.494 41.4351 106.51 38.4566C111.939 34.4413 111.92 34.479 109.658 31.9718L108.64 30.8596L108.055 31.2931C107.603 31.6325 107.452 31.8964 107.452 32.3111C107.433 32.8389 107.15 33.1029 104.115 35.3462C102.287 36.6846 100.628 37.8722 100.439 37.9665C100.176 38.0984 99.9682 38.023 99.5346 37.6083C98.8182 36.9297 98.7994 36.4584 99.4969 36.3264C99.9682 36.2133 107.867 30.5202 107.961 30.1998C107.999 30.1244 107.942 29.9547 107.848 29.8039C107.471 29.2195 106.415 29.8039 102.475 32.707C100.307 34.3093 98.4789 35.5724 98.3846 35.5158C97.8191 35.1765 98.1773 34.8749 104.21 30.4637C106.641 28.6728 106.736 28.4089 105.661 26.4484C104.926 25.1665 104.964 25.1665 103.173 25.3927Z" fill="white"/>
<path d="M23.6583 26.5615C22.6215 27.0328 21.2265 28.3146 20.8306 29.1441C20.529 29.8039 20.529 29.8416 20.9626 30.4448C21.1888 30.7842 23.2625 32.4996 25.5435 34.2339C28.2203 36.2887 29.5588 37.4387 29.3514 37.4764C28.5408 37.6272 25.6377 35.7609 22.5838 33.1217C21.6036 32.2734 21.4339 32.198 20.8495 32.3111C20.2274 32.4242 20.1897 32.4808 20.0766 33.4422C19.8315 35.365 20.0389 35.8928 21.7544 37.6083C22.6969 38.5697 23.7714 39.4369 24.6009 39.8893C25.8451 40.5868 26.0147 40.6245 27.5228 40.6245C29.5211 40.6245 30.2186 40.3229 31.7832 38.7205C32.82 37.6837 32.9709 37.4387 33.2725 36.2133C33.6684 34.5544 33.7249 32.1414 33.3667 31.4817C32.952 30.6899 30.8972 28.654 29.7284 27.8622C27.2778 26.1845 25.3549 25.7697 23.6583 26.5615ZM24.6575 29.7662C25.977 30.1432 30.4071 33.461 31.1046 34.5921C31.5382 35.2896 31.4816 35.8174 30.9349 36.5526L30.5767 37.0051L30.3317 36.5149C30.1809 36.251 29.2572 35.4216 28.2769 34.6675C24.582 31.8587 24.0919 31.4817 23.3756 30.8973C22.9608 30.5579 22.6215 30.2375 22.6215 30.1621C22.6215 29.9924 23.3756 29.6342 23.7526 29.6154C23.9034 29.5965 24.3181 29.6719 24.6575 29.7662Z" fill="white"/>
<path d="M62.2468 29.9548C60.9838 30.3884 60.6256 30.7277 59.9469 32.1604C59.4568 33.1407 59.3814 33.5554 59.3814 34.8184C59.3814 36.1946 59.438 36.4019 59.9469 37.0994C60.833 38.3436 61.719 38.8149 63.3402 38.9468C64.5655 39.0599 64.8671 39.0034 65.6589 38.6452C66.8088 38.0985 67.7325 37.024 68.1472 35.7044C68.5431 34.4414 68.43 33.5177 67.7325 32.0661C67.2989 31.1424 67.1481 31.0105 65.9039 30.4449C64.1319 29.6155 63.4721 29.5401 62.2468 29.9548ZM64.0377 30.9351C63.9246 31.3686 64.1508 31.4063 64.4712 31.0105C64.7163 30.7088 65.4138 30.6146 65.4138 30.8785C65.4138 30.9539 65.3196 31.1236 65.1876 31.2555C65.0179 31.4252 65.1122 31.4817 65.6589 31.4817C66.1679 31.4817 66.3564 31.5572 66.3564 31.7645C66.3564 31.9342 66.2244 32.1038 66.0736 32.1604C65.6212 32.3489 66.1302 32.8579 66.6203 32.7259C67.167 32.594 67.6571 32.8956 67.3555 33.1972C67.2047 33.348 67.2235 33.5365 67.412 33.8947C67.6383 34.3283 67.6194 34.4225 67.3743 34.5545C67.167 34.6676 67.1293 34.875 67.2047 35.2331C67.3366 35.8364 66.9596 36.27 66.5637 36.006C66.3941 35.9118 66.1113 35.9872 65.7531 36.2511C65.131 36.7035 65.0556 37.024 65.6212 36.8544C65.9416 36.7412 65.9982 36.7978 65.9416 37.0806C65.9039 37.2879 65.7343 37.401 65.5269 37.3633C65.263 37.3068 65.2064 37.3822 65.2819 37.5896C65.3573 37.7592 65.3761 37.8912 65.3384 37.8912C65.2819 37.8912 65.131 37.9477 64.9614 38.0043C64.7352 38.0797 64.6598 38.0043 64.6598 37.7215C64.6598 37.4953 64.6032 37.3256 64.5278 37.3256C64.2639 37.3445 63.7172 37.8346 63.7172 38.0608C63.7172 38.287 63.5098 38.3247 63.0951 38.1551C62.8877 38.0797 62.85 37.8535 62.9066 37.3633C62.9631 36.9863 63.0763 36.6281 63.1705 36.6093C63.3779 36.515 63.3967 36.006 63.1894 36.006C62.982 36.006 62.2091 37.401 62.2091 37.7969C62.2091 37.9666 62.096 38.0797 61.9829 38.042C61.6059 37.91 61.587 37.3256 61.9452 36.9298C62.3788 36.4585 62.1525 36.27 61.5116 36.5527C61.0969 36.7412 60.9649 36.7224 60.7198 36.4962C60.4559 36.2323 60.4748 36.1757 60.7953 35.9306C61.1157 35.7044 61.1346 35.629 60.8895 35.3463C60.6633 35.0635 60.6633 34.9881 60.9272 34.7996C61.2854 34.5356 61.1911 33.7439 60.7576 33.4988C60.3617 33.2726 60.6821 32.9521 61.1723 33.0653C61.7755 33.2161 61.9075 32.9333 61.455 32.3866L61.0969 31.9153L61.6247 31.3121C61.9075 30.9916 62.2845 30.7277 62.4542 30.7277C62.8312 30.7277 62.85 30.8031 62.5861 31.3121C62.473 31.5194 62.4353 31.7645 62.4919 31.8776C62.6804 32.1604 63.1894 31.6891 63.114 31.3121C63.0386 30.9728 63.7172 30.3318 63.9623 30.4826C64.0565 30.5392 64.0942 30.7465 64.0377 30.9351Z" fill="white"/>
<path d="M64.9425 32.2357C64.8671 32.3676 64.5844 32.4053 64.2639 32.3299C63.8869 32.2357 63.7172 32.2734 63.7172 32.4431C63.7172 32.575 63.5852 32.8389 63.3967 33.0274C62.9254 33.5553 63.2271 33.6307 63.9623 33.1405C64.3204 32.8955 64.7729 32.6127 64.9614 32.4996C65.1687 32.3676 65.263 32.2168 65.2065 32.1603C65.131 32.0849 65.0179 32.1226 64.9425 32.2357Z" fill="white"/>
<path d="M64.5655 33.1782C64.5089 33.2724 64.5844 33.3667 64.754 33.3667C64.9237 33.3667 64.9991 33.2724 64.9425 33.1782C64.886 33.0651 64.7917 32.9897 64.754 32.9897C64.7163 32.9897 64.6221 33.0651 64.5655 33.1782Z" fill="white"/>
<path d="M65.7154 33.1595C65.5458 33.4422 66.0548 33.7439 66.3564 33.5365C66.6014 33.3857 66.6014 33.348 66.3564 33.1783C65.9982 32.9521 65.8474 32.9521 65.7154 33.1595Z" fill="white"/>
<path d="M66.1867 34.9126C66.281 35.2519 66.3564 35.5535 66.3564 35.5724C66.3564 35.6101 66.4883 35.6289 66.6391 35.6289C66.9973 35.6289 66.9973 35.2519 66.6203 34.724C66.2056 34.1208 65.9793 34.2151 66.1867 34.9126Z" fill="white"/>
<path d="M64.4336 34.7053C63.9434 34.9881 64.0188 35.3839 64.5655 35.4782C65.1311 35.5913 65.3007 35.4028 65.1311 34.875C64.9991 34.4602 64.9049 34.4225 64.4336 34.7053Z" fill="white"/>
<path d="M64.0754 36.5527C63.8303 36.7601 63.6984 36.9863 63.7738 37.0617C63.8492 37.1371 64.0943 37.024 64.3205 36.7978C64.8483 36.2699 64.6598 36.0814 64.0754 36.5527Z" fill="white"/>
<path d="M63.1517 37.778C63.1517 37.9476 63.2459 38.0796 63.3402 38.0796C63.4533 38.0796 63.5287 38.0042 63.5287 37.9099C63.5287 37.7968 63.4533 37.6649 63.3402 37.6083C63.2459 37.5518 63.1517 37.6272 63.1517 37.778Z" fill="white"/>
<path d="M76.7246 34.8938C75.1222 35.5724 74.1985 37.91 74.9714 39.3992C75.6312 40.6811 77.9876 41.3409 79.3826 40.6246C81.1169 39.7197 81.0792 36.4773 79.3449 35.1954C78.7605 34.7618 77.3843 34.611 76.7246 34.8938Z" fill="white"/>
<path d="M47.6182 35.4781C46.4683 36.1568 46.1101 36.76 46.0347 38.2304C45.9593 39.3992 45.997 39.5689 46.4683 40.1155C47.1658 40.945 47.9576 41.322 49.0321 41.322C50.691 41.322 51.9163 40.1155 51.9163 38.4755C51.8975 36.006 49.5411 34.3471 47.6182 35.4781Z" fill="white"/>
<path d="M13.5352 42.4343C13.0073 42.6417 12.4041 43.6973 12.0648 45.0923C11.8763 45.8275 11.914 46.016 12.3476 46.9774C12.6115 47.5618 12.9885 48.0897 13.1582 48.1462C13.3278 48.1839 15.6842 48.7118 18.38 49.2961C21.0757 49.8805 23.3567 50.4461 23.4698 50.5403C23.564 50.6534 23.564 50.7854 23.4132 50.9362C23.2624 51.087 22.1125 50.8985 18.6627 50.1445C14.9113 49.3338 13.9311 49.183 13.0639 49.2773C11.6312 49.447 11.405 49.6166 10.9149 50.8419C10.3682 52.2558 10.387 53.0287 10.9526 54.1975L11.405 55.1212L16.6456 56.29C19.5299 56.9309 21.9428 57.5153 21.9994 57.5718C22.0748 57.6473 22.0182 57.7981 21.9051 57.9112C21.6412 58.1751 21.0757 58.062 14.6286 56.6481C12.1402 56.1014 10.7452 55.8752 10.4813 55.9883C9.72723 56.2711 9.42561 56.8366 9.2371 58.2693C8.93548 60.6069 8.95433 60.6446 9.74608 60.7954C10.3682 60.9085 10.5001 60.852 10.8772 60.4372L11.2919 59.9471L15.2129 60.7954C17.362 61.2667 19.6618 61.7757 20.3028 61.9265C21.9051 62.3224 22.5084 62.2847 23.0739 61.7757C23.4698 61.4364 23.5829 61.097 23.7337 59.7586L23.9222 58.1562L23.319 57.553C22.0559 56.2146 21.5281 56.0072 17.5128 55.1212C15.4015 54.6499 13.6483 54.2352 13.6106 54.1975C13.4032 54.009 13.7802 53.5377 14.2327 53.4246C14.5154 53.3492 16.476 53.6885 19.2283 54.2917L23.7526 55.272L24.3558 54.9138C25.0344 54.5179 25.1476 54.1975 25.3361 52.2935L25.468 50.9739L24.3181 49.9748L23.187 48.9945L19.134 48.1085C16.9096 47.6184 15.081 47.1283 15.081 47.0151C15.081 46.657 15.5334 46.3742 16.1744 46.3742C16.5137 46.3742 18.5308 46.7512 20.6233 47.2225C22.7346 47.6938 24.7517 48.0708 25.1287 48.0708C26.2975 48.0708 26.5802 47.6372 26.863 45.5259C26.995 44.4891 27.0704 43.5842 27.0327 43.5277C26.995 43.4523 26.6557 43.3391 26.2786 43.2637C25.6754 43.1506 25.5246 43.2072 25.1853 43.6408L24.7894 44.1309L20.8306 43.2449C16.7776 42.34 14.44 42.0761 13.5352 42.4343Z" fill="white"/>
<path d="M114.597 42.5473C114.427 42.585 114.22 42.8867 114.125 43.226L113.937 43.8104L110.845 44.4136C109.13 44.7341 106.679 45.2054 105.397 45.4316C102.871 45.9029 102.174 46.2799 102.174 47.1847C102.174 47.9011 102.947 50.2198 103.267 50.4837C103.437 50.6157 104.134 50.8796 104.794 51.087L106.038 51.4451L109.978 50.6911C112.165 50.2764 113.994 50.0124 114.088 50.1067C114.389 50.4083 114.012 50.8796 113.239 51.1624C112.806 51.332 110.619 51.7845 108.395 52.1992C104.7 52.859 104.323 52.9721 103.927 53.4245C103.38 54.0655 103.38 54.4048 103.927 56.1768L104.361 57.5718L105.567 58.0054C107.15 58.5521 107.282 58.5521 110.902 57.8546C114.898 57.1005 115.558 57.0062 115.558 57.289C115.558 57.421 115.351 57.7037 115.106 57.9488C114.729 58.2881 113.862 58.5143 110.242 59.1741C104.417 60.2487 104.323 60.3241 105.265 63.4534L105.699 64.9426H106.415C106.905 64.9426 107.169 64.8484 107.282 64.6033C107.377 64.4336 107.528 64.132 107.603 63.9624C107.735 63.7173 108.659 63.4722 111.618 62.9255C116.105 62.0961 117.217 61.7945 118.216 61.1535C119.102 60.6068 119.215 60.1733 119.046 58.3824C118.914 57.044 118.895 57.0062 117.971 56.1956L117.047 55.3662L111.826 56.3465C108.96 56.8743 106.51 57.3079 106.378 57.3079C106.264 57.3079 106.208 57.1571 106.264 56.9308C106.378 56.535 106.453 56.5161 111.034 55.7055C114.578 55.0646 115.275 54.8949 116.35 54.3482C117.669 53.7073 117.896 53.2549 117.764 51.5205C117.669 50.1821 117.613 50.0501 116.934 49.3526C115.954 48.3347 115.784 48.2593 114.71 48.4666C110.054 49.3526 105.586 50.1444 105.322 50.1444C105.001 50.1444 104.869 49.6731 105.152 49.5223C105.228 49.4657 107.659 48.9945 110.563 48.4478C113.994 47.8068 115.973 47.3544 116.199 47.147C116.878 46.5627 116.897 46.0914 116.369 44.2062C115.897 42.5285 115.841 42.4154 115.388 42.4342C115.125 42.4531 114.766 42.4908 114.597 42.5473Z" fill="white"/>
<path d="M63.7549 43.6597C63.6606 43.8482 63.5098 44.3006 63.4344 44.6588C63.2836 45.3751 62.2845 46.5628 61.3608 47.1283C61.0215 47.3357 60.2674 47.675 59.683 47.8823C57.6094 48.5798 55.9882 50.2199 55.9882 51.596C55.9882 52.105 55.9316 52.1616 55.5169 52.0862C55.1587 52.0108 55.0079 52.0862 54.8383 52.4632C54.7063 52.7837 54.4424 52.9722 54.1219 53.0099C53.7449 53.0476 53.5941 53.2173 53.4433 53.6697C53.349 54.009 53.1605 54.2918 53.0474 54.2918C52.6327 54.2918 52.2179 54.8573 52.2179 55.404C52.2179 55.6868 52.0483 56.0826 51.8409 56.2712C51.4262 56.6482 51.3319 57.4776 51.6712 57.817C51.8221 57.9678 51.6147 58.2128 50.8795 58.703C50.3139 59.08 49.7673 59.3816 49.6353 59.3816C49.2771 59.3816 49.164 58.3448 49.2394 55.1024L49.296 52.0485L48.8247 51.9731C47.9764 51.8034 33.1782 51.8223 33.1782 51.9919C33.1782 52.0673 33.4232 52.3312 33.7437 52.5575C34.8371 53.3681 35.3461 54.9516 35.8173 58.8915C36.2509 62.5109 36.4206 63.4912 37.0615 65.6025C37.6459 67.5254 38.2303 68.6753 39.0598 69.5801C40.0966 70.7112 41.8686 72.0497 43.1693 72.6529C44.3193 73.1996 44.5266 73.2373 46.6568 73.2373C48.7116 73.2373 49.0509 73.1807 50.2197 72.7094C51.9352 72.0119 52.3122 71.6915 53.4433 69.976C54.2539 68.713 54.4612 68.5245 55.0079 68.4679C55.7808 68.3925 55.9882 68.8638 55.9882 70.7489C55.9693 74.9527 53.481 79.0058 48.0329 83.662C46.4494 85.0193 44.5266 86.3578 43.8668 86.584C43.5841 86.6782 46.2798 90.5616 47.0904 91.2025C48.1838 92.0508 48.5796 92.2016 50.0312 92.3147C51.2565 92.409 51.5393 92.3713 52.5572 91.9C53.9334 91.2779 55.1964 90.0337 55.9316 88.5256C56.2144 87.9413 56.4972 87.4888 56.5726 87.5077C56.648 87.5454 57.1758 88.1486 57.7413 88.8838C58.6839 90.0526 58.7593 90.2223 58.5142 90.505C57.8733 91.2214 58.4954 92.5598 59.4757 92.5598C60.0223 92.5598 60.701 91.8812 60.701 91.3156C60.701 91.0894 60.5125 90.6747 60.2863 90.3919C59.8715 89.8641 59.7961 88.7896 60.06 87.4134L60.1732 86.9044H64.6786H69.1841V88.4125C69.1841 89.6756 69.1275 89.9772 68.807 90.2977C68.5808 90.5239 68.43 90.9198 68.43 91.3345C68.43 92.6352 70.0135 92.9557 70.6733 91.7869C70.8995 91.3533 70.8995 91.2402 70.6356 90.6935C70.4659 90.3354 70.3905 89.9583 70.4659 89.8452C70.8618 89.2231 72.4642 87.2815 72.5961 87.2815C72.6715 87.2815 72.8412 87.6019 72.9732 87.979C73.8215 90.6558 75.4615 92.0697 77.9122 92.3147C80.0801 92.5033 82.4365 91.4853 84.529 89.4117C85.6978 88.2617 86.3387 87.3757 86.3387 86.9044C86.3387 86.7159 85.8486 86.4709 84.906 86.1692C82.3234 85.3586 79.0621 83.0399 77.4221 80.872C75.1222 77.7993 74.0477 75.8765 73.2559 73.3315C71.597 68.1097 73.3879 66.6205 76.0082 71.0317C76.8 72.3701 77.7802 73.0676 79.7219 73.7463C80.7776 74.1233 81.2866 74.1798 83.134 74.1233C85.0945 74.0856 85.415 74.029 86.5272 73.5012C87.9599 72.8414 88.7705 72.1251 89.6754 70.6924C91.2777 68.2228 91.9375 65.4706 92.1072 60.7012C92.2203 56.9309 92.5596 55.6302 93.8792 53.6131L94.6144 52.5009L93.7284 52.3689C93.2383 52.3124 89.6565 52.237 85.7543 52.237L78.6474 52.2181L78.572 54.6122C78.4966 56.8932 78.1572 58.5522 77.6483 59.08C77.554 59.1931 77.177 59.0423 76.7434 58.7218C75.6689 57.9866 75.5181 57.7793 75.782 57.3268C75.9328 57.0252 75.914 56.799 75.7254 56.422C75.5746 56.1203 75.4992 55.6302 75.5369 55.3097C75.6123 54.8573 75.5369 54.6499 75.2165 54.4237C74.9148 54.2164 74.8394 54.0279 74.9337 53.7451C75.1033 53.1796 74.387 52.5198 73.7084 52.6706C73.2748 52.746 73.1428 52.6894 73.0486 52.3878C72.9355 52.0673 72.8035 52.0108 72.2945 52.0673C71.6724 52.1427 71.6536 52.105 71.5216 51.3698C71.2388 49.6921 70.2963 48.5421 68.6751 47.9766C66.8465 47.3357 66.6768 47.2414 66.1113 46.7701C65.4515 46.2046 64.4712 44.7342 64.4712 44.3006C64.4712 44.1309 64.3581 43.8293 64.2073 43.6408C63.9623 43.3015 63.9434 43.3015 63.7549 43.6597ZM64.3393 48.8626C64.7352 49.1642 64.8106 50.201 64.4901 50.5969C64.1508 51.0117 63.3967 50.974 63.1517 50.5404C62.8877 50.0125 62.9066 49.5413 63.2648 49.0511C63.5852 48.5798 63.8869 48.5233 64.3393 48.8626ZM63.359 52.4066C63.2459 53.2361 62.7935 53.877 62.0394 54.3106C61.1534 54.8008 60.8141 55.536 61.0969 56.3466C61.2477 56.7801 61.455 56.9309 62.1337 57.1006C63.2082 57.3834 63.2082 57.7604 62.1148 58.2694C61.5493 58.5333 61.2288 58.8161 61.1534 59.1177C60.9461 59.9471 61.21 60.4561 62.1148 60.8709C62.5861 61.0971 62.9631 61.3233 62.9631 61.3798C62.9631 61.4552 62.7181 61.7946 62.3976 62.1527C61.587 63.0576 61.6247 63.8871 62.4919 64.6034C63.114 65.1124 63.1517 65.1878 63.4344 67.3934C63.6041 68.6376 63.8114 69.7309 63.9057 69.8064C63.9811 69.9006 64.3393 68.8261 64.6598 67.4122C65.131 65.4894 65.3573 64.8296 65.6023 64.7542C66.0547 64.6034 66.4318 63.642 66.2621 63.0199C66.2056 62.7183 65.9228 62.247 65.64 61.9642C65.0745 61.3798 65.0933 61.361 66.3187 60.6823C67.5251 60.0037 67.1481 58.3448 65.7343 58.0055C64.8483 57.7981 64.8483 57.4022 65.7531 56.9875C66.3941 56.667 66.4506 56.5728 66.5072 55.7433C66.5637 54.9139 66.526 54.8385 65.9793 54.518C64.9048 53.9336 64.5089 53.5377 64.2827 52.8591C63.9434 51.86 64.1696 51.7469 65.8474 52.1239C67.7325 52.5386 69.2406 53.2738 70.4659 54.386C71.8798 55.6679 72.3888 56.6105 72.6904 58.6653C72.8412 59.7021 73.0674 60.5127 73.2559 60.72C73.8026 61.3233 74.9714 61.5118 78.063 61.493C81.2866 61.4741 83.6241 61.1159 84.0388 60.5692C84.4347 60.0226 84.3028 59.4947 83.6995 59.1365C83.3979 58.948 83.134 58.6841 83.134 58.5333C83.134 58.0997 83.8126 58.0243 85.2453 58.2694C87.8845 58.703 89.4492 58.0809 89.3172 56.5916C89.2606 55.9884 89.1664 55.8376 88.5066 55.5171C87.319 54.9139 87.1493 54.4614 87.9976 54.141C88.6385 53.9147 92.7858 52.9722 93.2006 52.9722C93.653 52.9722 93.5776 53.1984 92.8801 54.0279C91.3343 55.8187 90.3917 58.0809 90.1843 60.4561C90.0147 62.5109 89.8073 62.8314 88.45 63.2084C87.4886 63.4723 87.2813 63.6043 87.0362 64.151C86.678 64.8862 86.81 65.6214 87.4509 66.5262C87.9033 67.1672 87.9599 67.827 87.5829 68.3548C87.3567 68.6564 87.0739 68.713 85.8109 68.713C84.0388 68.713 83.7184 68.9203 83.0397 70.4473C82.5307 71.5784 82.1537 71.8234 80.9284 71.8234C79.8727 71.8234 79.3072 71.5407 77.1958 70.0326C74.3493 67.9966 73.1428 67.6196 72.2945 68.5433C71.5405 69.3539 70.8995 70.5981 70.5602 71.88C70.1455 73.4823 70.3905 74.3684 71.5593 75.4994C72.5019 76.4231 72.6338 77.1206 72.0306 78.1198C71.3896 79.1566 71.4462 80.2688 72.1626 81.0794C72.615 81.5884 72.8789 81.7015 73.878 81.8335C75.405 82.0031 75.5369 82.1539 75.1599 83.1153C74.9337 83.662 74.896 84.0202 75.0279 84.3407C75.3484 85.2267 75.9894 85.434 78.6662 85.6037C80.8718 85.7357 82.9643 86.1127 83.2848 86.4143C83.3413 86.4709 80.2686 86.5274 76.4606 86.5274H69.5422L68.4866 85.434C67.921 84.8497 67.3178 84.0768 67.1858 83.7374C66.9408 83.1907 66.9596 83.0588 67.2989 82.3801C67.8079 81.3999 67.7891 80.1368 67.2801 79.477C67.0727 79.2131 66.526 78.7607 66.0547 78.4968C65.0368 77.8935 64.886 77.6296 64.6032 75.9142C64.3204 74.2741 64 74.0856 63.8114 75.4429C63.6041 76.9887 63.0762 78.0066 61.8698 79.0812L60.7952 80.0614V81.1737C60.7952 82.0785 60.8895 82.4178 61.3231 83.0399C61.6059 83.4547 61.8321 83.8882 61.8321 84.0202C61.8321 84.3407 60.9084 85.3775 60.06 85.9807L59.3248 86.5274L52.331 86.5086H45.3372L46.3552 86.1315C47.8067 85.6226 49.9558 85.2078 50.5779 85.3398C51.4639 85.5094 52.7646 85.0382 53.0851 84.4161C53.3302 83.9448 53.3302 83.8128 53.0474 83.2284C52.595 82.267 52.8966 82.0031 54.3481 82.0031C55.2718 82.0031 55.5735 81.9277 55.9316 81.5884C56.516 81.0417 56.516 79.9106 55.9128 78.7984C55.3661 77.7616 55.5169 77.2337 56.5914 76.442C57.8356 75.5371 58.1561 74.9716 58.1372 73.7463C58.1184 71.8611 56.2332 68.1851 55.1964 68.0155C54.5743 67.9024 53.1793 68.6564 51.9352 69.7309C50.6156 70.8997 49.1263 71.503 47.5994 71.5218C46.7511 71.5407 46.3552 71.4464 45.9593 71.1636C45.2618 70.6358 44.8659 69.9006 44.8659 69.09C44.8659 68.1851 44.3947 67.3368 43.8291 67.186C43.5652 67.1295 42.8677 67.186 42.2645 67.3368C41.6801 67.4876 41.0768 67.5819 40.9449 67.5254C40.4547 67.3745 40.3416 66.6016 40.6244 65.5083C40.7752 64.9239 40.9072 64.2641 40.9072 64.019C40.9072 63.4346 40.2851 62.8314 39.4368 62.5863C38.1549 62.247 37.9852 61.8888 38.0418 59.7398C38.0795 57.5342 37.9852 57.2703 36.119 54.6876C35.478 53.8016 34.8748 52.9533 34.7805 52.8025C34.3846 52.1239 40.6056 53.3304 41.3408 54.0656C41.6801 54.4049 41.6801 54.4426 41.3785 54.6876C40.0212 55.781 39.7761 56.2335 40.0777 57.0252C40.2851 57.5342 41.2088 57.8735 42.4718 57.8735C43.3578 57.8735 43.7537 57.9489 43.9422 58.1751C44.1496 58.439 44.1307 58.5333 43.8103 58.7972C42.3022 60.0226 43.0751 61.3987 45.7142 62.1716C47.5805 62.7183 48.9001 62.8314 50.5779 62.6052C53.4056 62.2093 54.4612 61.2479 55.2341 58.3825C55.9505 55.7433 56.8176 54.4803 58.7593 53.2738C59.6453 52.746 62.4542 51.8223 63.0574 51.8977C63.3402 51.9165 63.4156 52.0485 63.359 52.4066ZM47.8633 52.3878L48.5042 52.4066L48.1084 52.8402C47.901 53.0664 47.5051 53.7262 47.2412 54.3106C46.9961 54.895 46.6191 55.4228 46.4306 55.4983C46.0347 55.6491 45.62 55.1778 45.62 54.5745C45.62 54.3483 45.4126 53.7451 45.1487 53.2361C44.8848 52.7271 44.6774 52.2935 44.6774 52.2747C44.6774 52.2558 45.243 52.2558 45.9593 52.3124C46.6568 52.3501 47.5051 52.3878 47.8633 52.3878ZM84.397 53.0099C84.0954 53.2173 83.3979 54.0656 82.8135 54.8762C81.3997 56.9121 80.8341 56.9121 80.7776 54.8762C80.721 53.3869 80.721 53.3869 80.3063 52.9722L79.9293 52.5952H82.4365L84.9249 52.614L84.397 53.0099ZM56.3086 55.0647C55.7431 55.8941 55.3661 56.799 55.0645 57.9301C54.8194 58.8349 54.5555 59.5701 54.4989 59.5701C54.4235 59.5701 53.9711 59.3251 53.481 59.0046C52.6327 58.4767 52.3876 58.0243 52.7835 57.7793C52.8966 57.7227 52.972 57.3457 52.972 56.9498C52.972 56.3654 53.0662 56.1957 53.4433 56.0261C53.8014 55.8564 53.9145 55.6679 53.9145 55.2343C53.9145 54.8008 53.9899 54.6688 54.2916 54.6688C54.5366 54.6688 54.744 54.4803 54.8571 54.1975C54.9891 53.8582 55.1776 53.7262 55.5357 53.7262C55.8751 53.7262 56.0636 53.6131 56.1201 53.3304C56.2332 52.9345 56.2332 52.9345 56.6857 53.3869L57.1381 53.8393L56.3086 55.0647ZM71.8421 53.4623C72.0117 53.6508 72.2568 53.7262 72.615 53.6508C73.0109 53.5754 73.1805 53.632 73.3313 53.9147C73.4256 54.1033 73.6895 54.3295 73.8969 54.386C74.1985 54.4803 74.255 54.6122 74.1608 54.9704C74.0854 55.272 74.1419 55.5548 74.3493 55.781C74.5755 56.0261 74.6132 56.1769 74.4813 56.2712C74.1796 56.4408 74.2362 57.1572 74.5755 57.6661C74.8771 58.0809 74.8583 58.1186 74.3493 58.5522C73.2748 59.457 73.1805 59.457 73.0486 58.6841C72.7846 56.9875 72.3511 55.9318 71.5216 55.0458C70.5979 54.0467 70.5602 53.9902 71.0126 53.5C71.3896 53.0853 71.5216 53.0853 71.8421 53.4623ZM77.1016 59.9094C77.1016 60.6823 74.6886 61.2102 73.8026 60.6258C73.5387 60.4561 73.3313 60.1922 73.3313 60.0414C73.3313 59.8152 73.6707 59.7586 75.2165 59.7586C76.2533 59.7586 77.1016 59.834 77.1016 59.9094ZM54.2916 60.098C54.2916 60.3996 53.6695 61.0971 53.1605 61.361C52.0483 61.9454 50.4648 61.4552 49.9746 60.3807L49.7673 59.9471H52.0294C53.2736 59.9471 54.2916 60.0037 54.2916 60.098ZM64.8106 80.9097C64.8483 81.2679 64.7729 81.4376 64.4901 81.5318C64 81.6826 63.7172 81.513 63.7172 81.0794C63.7172 80.2499 64.7163 80.0803 64.8106 80.9097ZM51.2754 87.2061C51.2754 87.9224 50.7098 88.7519 50.0877 88.9781C48.6739 89.4682 46.9019 88.8838 45.5257 87.47L44.7905 86.7159H48.0329H51.2754V87.2061ZM84.3593 87.5077C83.0209 88.356 81.0792 89.1477 80.344 89.1666C79.5145 89.1666 78.7982 88.4125 78.7982 87.5454V86.9044H82.0595H85.3019L84.3593 87.5077Z" fill="white"/>
<path d="M85.2076 43.8669C84.2651 44.357 83.3225 45.8274 83.3225 46.8454C83.3225 48.542 84.6044 49.9558 86.169 49.9558C87.0174 49.9558 88.4689 49.051 88.9025 48.2403C89.3361 47.392 89.2041 45.6954 88.6197 44.9037C87.828 43.7726 86.301 43.3202 85.2076 43.8669ZM86.5272 44.6963C86.5272 44.8094 86.7157 44.8848 86.9608 44.866C87.7149 44.7906 87.8091 44.866 87.9411 45.5635C88.0165 45.9593 88.1673 46.3364 88.2804 46.4118C88.4501 46.5249 88.4501 46.5626 88.2804 46.5626C88.1484 46.5626 88.0353 46.638 88.0353 46.7511C88.0353 46.8454 88.1484 46.9396 88.2992 46.9396C88.5632 46.9396 88.8836 47.4863 88.714 47.656C88.6574 47.6937 88.3935 47.7314 88.1296 47.7314C87.6017 47.7314 87.5452 47.8822 87.8845 48.2215C88.073 48.41 88.0165 48.542 87.6771 48.8813L87.2247 49.296L87.3378 48.8624C87.4509 48.3535 87.1682 48.2969 87.0362 48.8247C86.9608 49.1075 86.7723 49.2018 86.3576 49.2018C86.0371 49.2018 85.7732 49.1264 85.7732 49.051C85.7732 48.9567 85.547 48.787 85.283 48.6551C84.8495 48.4666 84.8118 48.3535 84.906 47.7879C85.038 47.1281 85.0191 47.1281 84.3782 47.1281C83.8692 47.1281 83.7372 47.0716 83.8126 46.8454C83.888 46.6945 84.0389 46.5626 84.1897 46.5626C84.3405 46.5626 84.4536 46.4306 84.4536 46.2798C84.4536 45.9405 84.6798 45.9216 84.9814 46.2233C85.0945 46.3364 85.2453 46.3929 85.3019 46.3364C85.3584 46.2798 85.283 46.0913 85.1134 45.9405C84.5478 45.375 84.8495 45.0356 85.5847 45.4315C86.0182 45.6577 86.2822 45.3561 85.9805 44.9791C85.8674 44.8471 85.8297 44.6775 85.9051 44.6209C86.0936 44.4135 86.5272 44.4701 86.5272 44.6963Z" fill="white"/>
<path d="M86.9231 46.2612C86.9042 46.5251 86.7911 46.5816 86.433 46.5062C86.0559 46.4497 85.9617 46.4874 85.9994 46.7325C86.0748 47.1283 86.8665 47.2414 87.0174 46.8644C87.0739 46.7136 87.0928 46.4308 87.0362 46.2423C86.9608 45.9219 86.9419 45.9219 86.9231 46.2612Z" fill="white"/>
<path d="M40.1531 44.0743C38.7958 44.734 38.1738 46.9396 38.9467 48.2781C39.5876 49.3903 41.7178 49.7296 42.6415 48.8813C43.2259 48.3535 43.7349 47.2224 43.7349 46.4307C43.7349 45.5069 42.962 44.357 42.1137 43.9988C41.2842 43.6595 40.9449 43.6595 40.1531 44.0743ZM41.0957 44.7717C41.0957 44.9226 41.2654 45.0545 41.4539 45.0545C41.9817 45.0545 42.5661 45.884 42.7169 46.8454C42.8489 47.8068 42.6981 48.2027 42.321 47.8822C42.1137 47.7125 41.944 47.7314 41.6235 47.9576C41.3973 48.1273 40.9449 48.2592 40.6244 48.2404H40.0589L40.4925 47.9388C40.7187 47.7879 40.9072 47.524 40.9072 47.3921C40.9072 47.0527 40.2474 47.0527 39.9081 47.4109C39.4933 47.8068 39.2294 47.3921 39.3048 46.5249C39.3991 45.4881 41.0957 43.8292 41.0957 44.7717Z" fill="white"/>
<path d="M40.3417 46.0915C40.3417 46.3177 40.4171 46.3554 40.6433 46.2234C40.813 46.1292 41.1334 46.0915 41.3408 46.148C41.6047 46.2046 41.6801 46.1669 41.5859 46.0349C41.3785 45.6956 40.3417 45.7521 40.3417 46.0915Z" fill="white"/>
<path d="M41.0957 46.7701C41.0957 46.8643 41.19 46.9021 41.2842 46.8455C41.3973 46.7889 41.4727 46.6947 41.4727 46.6381C41.4727 46.6004 41.3973 46.5627 41.2842 46.5627C41.19 46.5627 41.0957 46.657 41.0957 46.7701Z" fill="white"/>
<path d="M30.2751 91.0328C29.8415 91.4853 29.785 91.6361 29.9546 91.9566C30.0677 92.1828 30.162 92.4844 30.162 92.6352C30.162 92.8049 28.4277 94.7654 26.2975 97.0087C22.6403 100.854 22.433 101.099 22.433 101.797C22.433 102.626 22.6026 102.834 24.1673 103.889C25.4115 104.738 25.6943 104.757 27.6171 104.04C28.4654 103.72 28.9932 103.267 31.4062 100.666C32.952 99.0069 34.3093 97.6685 34.4412 97.6496C34.7806 97.6496 34.9314 97.989 34.7994 98.5356C34.724 98.7807 33.197 100.572 31.3873 102.476C28.635 105.341 28.0884 106.02 28.0884 106.491C28.0884 107.396 28.2392 107.565 29.785 108.583L31.2554 109.545L32.7446 109.036C34.1585 108.527 34.2904 108.433 36.3075 106.321C37.4574 105.134 38.777 103.739 39.2483 103.23C40.1155 102.268 40.5302 102.212 40.5302 103.003C40.5302 103.588 40.172 104.04 36.9484 107.452C35.4215 109.055 34.0831 110.563 33.9511 110.808C33.8191 111.053 33.7626 111.486 33.838 111.769C33.9511 112.297 34.3093 112.636 36.2698 113.937L37.382 114.691L37.9287 114.088C38.4377 113.504 38.4565 113.447 38.1738 112.919L37.891 112.354L41.1711 108.866C44.5644 105.266 45.6012 103.795 45.3561 102.89C45.2996 102.645 44.8094 101.948 44.2439 101.344C43.2636 100.251 43.2259 100.232 41.944 100.081L40.6244 99.9118L39.5311 101.005C38.9278 101.59 37.1558 103.456 35.5723 105.134C33.3856 107.471 32.6692 108.131 32.4807 107.98C32.3487 107.867 32.2356 107.716 32.2356 107.622C32.2356 107.528 33.0274 106.623 33.9888 105.624C38.532 100.873 39.1163 100.157 39.4934 98.875C39.7384 98.0832 39.7384 98.0267 39.2294 97.3292C38.1926 95.8965 37.4951 95.4629 36.1001 95.3121L34.8183 95.1801L33.9888 95.9907C33.5175 96.4431 31.7832 98.2717 30.1054 100.044C28.4465 101.835 26.995 103.305 26.9196 103.305C26.8253 103.305 26.7122 103.173 26.6557 103.022C26.5049 102.664 26.863 102.249 30.8406 98.0832C32.6504 96.1981 34.215 94.4261 34.3093 94.181C34.6297 93.3138 34.2339 92.7295 32.5373 91.5607C31.6512 90.9763 30.916 90.4862 30.8783 90.4862C30.8218 90.4862 30.5579 90.7312 30.2751 91.0328Z" fill="white"/>
<path d="M94.0112 91.8812C93.6342 92.0697 93.2383 92.4656 91.5417 94.3884C91.1835 94.822 91.1835 94.822 91.6359 95.3121C92.0129 95.708 92.2015 95.7834 92.7481 95.6891L93.4079 95.5949L94.3505 97.3857L95.2742 99.1766L94.8783 99.5725L94.4825 99.9684L92.3711 98.0078C91.2212 96.9333 90.1655 96.0284 90.0147 95.9907C89.5623 95.8965 89.4492 96.5186 89.8073 97.1595C89.977 97.48 91.881 99.4405 94.03 101.514C96.1791 103.588 97.9322 105.36 97.9322 105.473C97.9322 105.567 97.7814 105.68 97.5929 105.718C97.3478 105.775 96.443 105.02 94.7652 103.38C88.5632 97.3292 89.1287 97.8193 88.2238 97.7816C87.4321 97.7628 87.3755 97.8005 86.0371 99.252C84.8118 100.59 84.6987 100.779 84.9437 101.062C85.0945 101.213 85.1511 101.42 85.0757 101.514C84.9814 101.59 85.0191 101.608 85.1322 101.552C85.2642 101.476 85.4527 101.533 85.5658 101.684C85.7355 101.891 85.924 101.91 86.433 101.74L87.0739 101.552L91.1458 105.492C93.4079 107.679 95.4439 109.488 95.7266 109.582C96.0094 109.658 96.4241 109.677 96.6503 109.62C97.1593 109.507 99.3461 107.132 99.3461 106.679C99.3461 106.491 99.1387 105.775 98.8936 105.077C98.4978 104.021 98.2339 103.644 97.1405 102.626C96.443 101.985 95.9152 101.401 95.9717 101.326C96.0471 101.269 97.3855 101.853 98.9691 102.645C101.156 103.739 101.966 104.059 102.325 103.965C102.928 103.814 104.756 102.57 105.454 101.835L105.982 101.25L105.548 100.534C105.322 100.138 105.115 99.7987 105.096 99.7798C105.096 99.761 104.719 99.8364 104.285 99.9495C103.38 100.176 103.192 100.119 99.6854 98.6488L97.6872 97.8005L96.7823 95.1236C96.311 93.672 95.8397 92.3336 95.7455 92.1639C95.5381 91.7681 94.5956 91.6172 94.0112 91.8812Z" fill="white"/>
<path d="M78.572 102.89C77.0451 103.701 75.7443 104.398 75.6878 104.474C75.6312 104.53 75.7255 104.888 75.8951 105.265C76.1968 105.888 76.291 105.944 77.0451 105.944H77.8557L80.344 110.94C83.4922 117.236 83.3791 117.142 86.2633 115.502L87.6206 114.748L87.7526 113.164L87.8845 111.581L87.1116 110.035C86.6969 109.187 85.7732 107.377 85.0568 106.038C84.3593 104.681 83.6241 103.23 83.4545 102.777C83.2094 102.174 82.9643 101.891 82.4742 101.684C82.116 101.533 81.7202 101.42 81.5882 101.42C81.4562 101.42 80.099 102.08 78.572 102.89ZM83.134 105.096C83.266 105.511 84.152 107.396 85.1322 109.281C86.1125 111.166 86.9043 112.787 86.9043 112.9C86.9043 113.013 86.7157 113.108 86.4707 113.108C86.1125 113.108 85.7543 112.523 83.9258 108.847C82.757 106.491 81.8144 104.568 81.8521 104.53C82.1537 104.285 82.6816 104.116 82.7758 104.21C82.8512 104.285 83.0021 104.681 83.134 105.096Z" fill="white"/>
<path d="M47.3166 103.795C46.4494 104.587 46.4306 104.662 46.9207 105.36L47.2789 105.869L45.9782 110.374L44.6586 114.899L44.9979 115.615C45.1676 116.03 45.5823 116.557 45.9028 116.803C46.6757 117.387 49.2583 118.575 49.7673 118.575C49.9746 118.575 50.6721 118.367 51.2942 118.103C52.331 117.689 52.4253 117.689 52.5195 117.971C52.8023 118.933 53.1039 119.216 54.4424 119.743L55.7997 120.29L56.7422 119.498C57.2701 119.065 57.6848 118.669 57.6848 118.631C57.6848 118.593 57.4963 118.311 57.2701 118.009L56.8742 117.462L58.3257 112.391C59.8338 107.151 59.8904 106.679 59.1929 106.038C59.0044 105.869 58.1938 105.605 57.3643 105.473C55.1776 105.077 55.1022 105.077 54.8571 105.869C54.6497 106.472 54.6686 106.585 55.0268 106.962L55.4226 107.396L54.1785 111.75C52.9343 116.067 52.8966 116.124 52.4064 116.124C51.8786 116.124 50.7098 115.785 50.7098 115.634C50.7098 115.577 50.8795 115.313 51.068 115.031C51.4073 114.578 54.103 105.68 54.103 105.058C54.103 104.87 53.9334 104.813 53.5941 104.851C52.8212 104.945 52.4441 105.831 51.0868 110.657C50.4271 112.995 49.8427 114.955 49.7673 115.049C49.7107 115.125 49.5222 115.068 49.3337 114.955C49.0509 114.729 49.1452 114.314 50.3516 110.205C51.068 107.716 51.6524 105.454 51.6524 105.171C51.6524 104.53 51.0491 104.021 49.6542 103.494C48.2969 102.985 48.2026 103.003 47.3166 103.795Z" fill="white"/>
<path d="M67.8457 105.567C67.0728 105.661 66.5072 105.906 65.6589 106.472C64.3393 107.377 62.6804 109.111 62.5108 109.79C62.3788 110.355 62.8501 112.844 63.1894 113.24C63.5476 113.673 64.6975 114.201 67.2424 115.106C69.9005 116.03 70.1267 116.162 70.1267 116.802C70.1267 117.368 70.4848 117.387 71.0504 116.859C71.3708 116.557 71.4463 116.331 71.352 115.954C71.2954 115.69 71.1635 115.389 71.0881 115.313C71.0127 115.238 69.7685 114.748 68.3169 114.239C64.7729 112.957 64.1131 112.636 63.9058 112.052C63.623 111.336 63.6795 109.79 63.9812 109.545C64.1885 109.356 64.2828 109.507 64.4713 110.318C64.6032 110.864 64.7918 111.468 64.886 111.637C65.1122 112.09 66.0925 112.561 68.3358 113.296C71.5405 114.333 71.9929 114.578 72.1249 115.276C72.3323 116.425 72.1626 116.916 71.2577 117.594L70.4094 118.254L68.7128 118.141C66.413 118.009 66.1491 117.877 65.6966 116.708L65.3384 115.747H64.4524C63.9623 115.747 63.491 115.86 63.3779 115.973C63.2648 116.143 63.246 116.784 63.3402 117.82C63.4345 118.706 63.5099 119.63 63.5099 119.875L63.5287 120.328L67.0351 120.215C70.2586 120.101 70.6168 120.064 71.5971 119.611C73.0298 118.951 74.5379 117.783 75.16 116.859C75.6124 116.162 75.6501 116.011 75.537 114.653C75.3296 112.203 75.1977 111.92 73.9346 111.354C73.3502 111.091 71.861 110.563 70.6168 110.167C68.1284 109.375 67.808 109.092 67.9022 107.886L67.9588 107.169L69.5234 107.207C70.3906 107.226 71.2012 107.32 71.3331 107.452C71.484 107.565 71.7856 108.15 72.0118 108.772L72.4265 109.884L73.3125 109.771C73.7838 109.714 74.2174 109.639 74.2551 109.601C74.2928 109.564 74.2551 108.621 74.1608 107.509L73.9912 105.473L71.4463 105.454C70.0513 105.435 68.4301 105.492 67.8457 105.567Z" fill="white"/>
</svg>
