<svg width="1991" height="444" viewBox="0 0 1991 444" fill="none" xmlns="http://www.w3.org/2000/svg">
<path fill-rule="evenodd" clip-rule="evenodd" d="M501 96.506V193.012L659.25 192.756L817.5 192.5L817.241 301.75L816.982 411H753.991H691V427.5V444H834H977V301V158H819H661V95V32H724H787V16V0H644H501V96.506ZM817 16V32H912H1007V238V444H1087H1167V238V32H1325.5H1484V16V0H1150.5H817V16ZM1515 222V444H1594.5H1674V266C1674 151.845 1674.35 88 1674.97 88C1675.5 88 1675.65 88.749 1675.3 89.664C1674.83 90.872 1675.02 91.104 1675.98 90.51C1676.83 89.985 1677.07 90.079 1676.64 90.771C1675.89 91.99 1677.89 97 1679.13 97C1679.57 97 1679.65 97.749 1679.3 98.664C1678.87 99.775 1679.04 100.09 1679.82 99.612C1680.55 99.158 1680.78 99.417 1680.43 100.319C1680.13 101.102 1680.56 102.422 1681.4 103.252C1682.23 104.082 1682.63 105.04 1682.29 105.381C1681.95 105.721 1682.22 106 1682.89 106C1683.57 106 1683.86 106.416 1683.55 106.925C1682.86 108.031 1684.98 113 1686.13 113C1686.57 113 1686.65 113.749 1686.3 114.664C1685.83 115.872 1686.02 116.104 1686.98 115.51C1687.83 114.985 1688.07 115.079 1687.64 115.771C1686.89 116.99 1688.89 122 1690.13 122C1690.57 122 1690.65 122.749 1690.3 123.664C1689.87 124.775 1690.04 125.09 1690.82 124.612C1691.55 124.158 1691.78 124.417 1691.43 125.319C1691.13 126.102 1691.56 127.422 1692.4 128.252C1693.23 129.082 1693.63 130.04 1693.29 130.381C1692.95 130.721 1693.22 131 1693.89 131C1694.57 131 1694.86 131.416 1694.55 131.925C1693.86 133.031 1695.98 138 1697.13 138C1697.57 138 1697.65 138.749 1697.3 139.664C1696.87 140.775 1697.04 141.09 1697.82 140.612C1698.55 140.158 1698.78 140.417 1698.43 141.319C1698.13 142.102 1698.56 143.422 1699.4 144.252C1700.23 145.082 1700.63 146.04 1700.29 146.381C1699.95 146.721 1700.18 147 1700.8 147C1701.45 147 1701.66 147.714 1701.3 148.664C1700.87 149.775 1701.04 150.09 1701.82 149.612C1702.55 149.158 1702.78 149.417 1702.43 150.319C1702.13 151.102 1702.56 152.422 1703.4 153.252C1704.23 154.082 1704.63 155.04 1704.29 155.381C1703.95 155.721 1704.22 156 1704.89 156C1705.57 156 1705.86 156.416 1705.55 156.925C1704.86 158.031 1706.98 163 1708.13 163C1708.57 163 1708.65 163.749 1708.3 164.664C1707.87 165.775 1708.04 166.09 1708.82 165.612C1709.55 165.158 1709.78 165.417 1709.43 166.319C1709.13 167.102 1709.56 168.422 1710.4 169.252C1711.23 170.082 1711.63 171.04 1711.29 171.381C1710.95 171.721 1711.22 172 1711.89 172C1712.57 172 1712.86 172.416 1712.55 172.925C1711.86 174.031 1713.98 179 1715.13 179C1715.57 179 1715.65 179.749 1715.3 180.664C1714.83 181.872 1715.02 182.104 1715.98 181.51C1716.83 180.985 1717.07 181.079 1716.64 181.771C1715.89 182.99 1717.89 188 1719.13 188C1719.57 188 1719.65 188.749 1719.3 189.664C1718.87 190.775 1719.04 191.09 1719.82 190.612C1720.55 190.158 1720.78 190.417 1720.43 191.319C1720.13 192.102 1720.56 193.422 1721.4 194.252C1722.23 195.082 1722.63 196.04 1722.29 196.381C1721.95 196.721 1722.22 197 1722.89 197C1723.57 197 1723.86 197.416 1723.55 197.925C1722.86 199.031 1724.98 204 1726.13 204C1726.57 204 1726.65 204.749 1726.3 205.664C1725.83 206.872 1726.02 207.104 1726.98 206.51C1727.83 205.985 1728.07 206.079 1727.64 206.771C1726.89 207.99 1728.89 213 1730.13 213C1730.57 213 1730.65 213.749 1730.3 214.664C1729.87 215.775 1730.04 216.09 1730.82 215.612C1731.55 215.158 1731.78 215.417 1731.43 216.319C1731.13 217.102 1731.56 218.422 1732.4 219.252C1733.23 220.082 1733.63 221.04 1733.29 221.381C1732.95 221.721 1733.22 222 1733.89 222C1734.57 222 1734.86 222.416 1734.55 222.925C1733.86 224.031 1735.98 229 1737.13 229C1737.57 229 1737.65 229.749 1737.3 230.664C1736.87 231.775 1737.04 232.09 1737.82 231.612C1738.55 231.158 1738.78 231.417 1738.43 232.319C1738.13 233.102 1738.56 234.422 1739.4 235.252C1740.23 236.082 1740.63 237.04 1740.29 237.381C1739.95 237.721 1740.18 238 1740.8 238C1741.45 238 1741.66 238.714 1741.3 239.664C1740.87 240.775 1741.04 241.09 1741.82 240.612C1742.55 240.158 1742.78 240.417 1742.43 241.319C1742.13 242.102 1742.56 243.422 1743.4 244.252C1744.23 245.082 1744.63 246.04 1744.29 246.381C1743.95 246.721 1744.22 247 1744.89 247C1745.57 247 1745.86 247.416 1745.55 247.925C1744.86 249.031 1746.98 254 1748.13 254C1748.57 254 1748.65 254.749 1748.3 255.664C1747.87 256.775 1748.04 257.09 1748.82 256.612C1749.55 256.158 1749.78 256.417 1749.43 257.319C1749.13 258.102 1749.56 259.422 1750.4 260.252C1751.23 261.082 1751.63 262.04 1751.29 262.381C1750.95 262.721 1751.22 263 1751.89 263C1752.57 263 1752.86 263.416 1752.55 263.925C1751.86 265.031 1753.98 270 1755.13 270C1755.57 270 1755.65 270.749 1755.3 271.664C1754.83 272.872 1755.02 273.104 1755.98 272.51C1756.83 271.985 1757.07 272.079 1756.64 272.771C1755.89 273.99 1757.89 279 1759.13 279C1759.57 279 1759.65 279.749 1759.3 280.664C1758.87 281.775 1759.04 282.09 1759.82 281.612C1760.55 281.158 1760.78 281.417 1760.43 282.319C1760.13 283.102 1760.56 284.422 1761.4 285.252C1762.23 286.082 1762.63 287.04 1762.29 287.381C1761.95 287.721 1762.22 288 1762.89 288C1763.57 288 1763.86 288.416 1763.55 288.925C1762.86 290.031 1764.98 295 1766.13 295C1766.57 295 1766.65 295.749 1766.3 296.664C1765.83 297.872 1766.02 298.104 1766.98 297.51C1767.83 296.985 1768.07 297.079 1767.64 297.771C1766.89 298.99 1768.89 304 1770.13 304C1770.57 304 1770.65 304.749 1770.3 305.664C1769.87 306.775 1770.04 307.09 1770.82 306.612C1771.55 306.158 1771.78 306.417 1771.43 307.319C1771.13 308.102 1771.56 309.422 1772.4 310.252C1773.23 311.082 1773.63 312.04 1773.29 312.381C1772.95 312.721 1773.22 313 1773.89 313C1774.57 313 1774.86 313.416 1774.55 313.925C1773.86 315.031 1775.98 320 1777.13 320C1777.57 320 1777.65 320.749 1777.3 321.664C1776.87 322.775 1777.04 323.09 1777.82 322.612C1778.55 322.158 1778.78 322.417 1778.43 323.319C1778.13 324.102 1778.56 325.422 1779.4 326.252C1780.23 327.082 1780.63 328.04 1780.29 328.381C1779.95 328.721 1780.18 329 1780.8 329C1781.45 329 1781.66 329.714 1781.3 330.664C1780.87 331.775 1781.04 332.09 1781.82 331.612C1782.55 331.158 1782.78 331.417 1782.43 332.319C1782.13 333.102 1782.56 334.422 1783.4 335.252C1784.23 336.082 1784.63 337.04 1784.29 337.381C1783.95 337.721 1784.22 338 1784.89 338C1785.57 338 1785.86 338.416 1785.55 338.925C1784.86 340.031 1786.98 345 1788.13 345C1788.57 345 1788.65 345.749 1788.3 346.664C1787.87 347.775 1788.04 348.09 1788.82 347.612C1789.55 347.158 1789.78 347.417 1789.43 348.319C1789.13 349.102 1789.56 350.422 1790.4 351.252C1791.23 352.082 1791.63 353.04 1791.29 353.381C1790.95 353.721 1791.22 354 1791.89 354C1792.57 354 1792.86 354.416 1792.55 354.925C1791.86 356.031 1793.98 361 1795.13 361C1795.57 361 1795.65 361.749 1795.3 362.664C1794.83 363.872 1795.02 364.104 1795.98 363.51C1796.83 362.985 1797.07 363.079 1796.64 363.771C1795.89 364.99 1797.89 370 1799.13 370C1799.57 370 1799.65 370.749 1799.3 371.664C1798.87 372.775 1799.04 373.09 1799.82 372.612C1800.55 372.158 1800.78 372.417 1800.43 373.319C1800.13 374.102 1800.56 375.422 1801.4 376.252C1802.23 377.082 1802.63 378.04 1802.29 378.381C1801.95 378.721 1802.22 379 1802.89 379C1803.57 379 1803.86 379.416 1803.55 379.925C1802.86 381.031 1804.98 386 1806.13 386C1806.57 386 1806.65 386.749 1806.3 387.664C1805.83 388.872 1806.02 389.104 1806.98 388.51C1807.83 387.985 1808.07 388.079 1807.64 388.771C1806.89 389.99 1808.89 395 1810.13 395C1810.57 395 1810.65 395.749 1810.3 396.664C1809.87 397.775 1810.04 398.09 1810.82 397.612C1811.55 397.158 1811.78 397.417 1811.43 398.319C1811.13 399.102 1811.56 400.422 1812.4 401.252C1813.23 402.082 1813.63 403.04 1813.29 403.381C1812.95 403.721 1813.22 404 1813.89 404C1814.57 404 1814.86 404.416 1814.55 404.925C1813.86 406.031 1815.98 411 1817.13 411C1817.57 411 1817.65 411.749 1817.3 412.664C1816.87 413.775 1817.04 414.09 1817.82 413.612C1818.55 413.158 1818.78 413.417 1818.43 414.319C1818.13 415.102 1818.56 416.422 1819.4 417.252C1820.23 418.082 1820.63 419.04 1820.29 419.381C1819.95 419.721 1820.18 420 1820.8 420C1821.45 420 1821.66 420.714 1821.3 421.664C1820.87 422.775 1821.04 423.09 1821.82 422.612C1822.55 422.158 1822.78 422.417 1822.43 423.319C1822.13 424.102 1822.51 425.367 1823.27 426.13C1824.04 426.893 1824.45 428.139 1824.2 428.898C1823.9 429.816 1824.17 430.013 1825.03 429.485C1825.84 428.984 1826.06 429.09 1825.64 429.771C1824.89 430.99 1826.89 436 1828.13 436C1828.57 436 1828.65 436.749 1828.3 437.664C1827.87 438.775 1828.04 439.09 1828.82 438.612C1829.55 438.158 1829.78 438.417 1829.43 439.319C1829.13 440.102 1829.62 441.475 1830.51 442.371C1831.99 443.849 1839.51 444 1911.57 444H1991V222V0H1910.99H1830.99L1831 174.25C1831.01 270.088 1831.01 350.188 1831.01 352.25C1831 354.313 1830.52 356 1829.94 356C1829.36 356 1829.14 355.584 1829.45 355.075C1830.14 353.969 1828.02 349 1826.87 349C1826.43 349 1826.35 348.251 1826.7 347.336C1827.13 346.225 1826.96 345.91 1826.18 346.388C1825.45 346.842 1825.22 346.583 1825.57 345.681C1825.87 344.898 1825.44 343.578 1824.6 342.748C1823.77 341.918 1823.37 340.96 1823.71 340.619C1824.05 340.279 1823.78 340 1823.11 340C1822.43 340 1822.14 339.584 1822.45 339.075C1823.14 337.969 1821.02 333 1819.87 333C1819.43 333 1819.35 332.251 1819.7 331.336C1820.13 330.225 1819.96 329.91 1819.18 330.388C1818.45 330.842 1818.22 330.583 1818.57 329.681C1818.87 328.898 1818.44 327.578 1817.6 326.748C1816.77 325.918 1816.37 324.96 1816.71 324.619C1817.05 324.279 1816.78 324 1816.11 324C1815.43 324 1815.14 323.584 1815.45 323.075C1816.14 321.969 1814.02 317 1812.87 317C1812.43 317 1812.35 316.251 1812.7 315.336C1813.17 314.128 1812.98 313.896 1812.02 314.49C1811.17 315.015 1810.93 314.921 1811.36 314.229C1812.11 313.01 1810.11 308 1808.87 308C1808.43 308 1808.35 307.251 1808.7 306.336C1809.13 305.225 1808.96 304.91 1808.18 305.388C1807.45 305.842 1807.22 305.583 1807.57 304.681C1807.87 303.898 1807.44 302.578 1806.6 301.748C1805.77 300.918 1805.37 299.96 1805.71 299.619C1806.05 299.279 1805.78 299 1805.11 299C1804.43 299 1804.14 298.584 1804.45 298.075C1805.14 296.969 1803.02 292 1801.87 292C1801.43 292 1801.35 291.251 1801.7 290.336C1802.13 289.225 1801.96 288.91 1801.18 289.388C1800.45 289.842 1800.22 289.583 1800.57 288.681C1800.87 287.898 1800.44 286.578 1799.6 285.748C1798.77 284.918 1798.37 283.96 1798.71 283.619C1799.05 283.279 1798.78 283 1798.11 283C1797.43 283 1797.14 282.584 1797.45 282.075C1798.14 280.969 1796.02 276 1794.87 276C1794.43 276 1794.35 275.251 1794.7 274.336C1795.13 273.225 1794.96 272.91 1794.18 273.388C1793.45 273.842 1793.22 273.583 1793.57 272.681C1793.87 271.898 1793.44 270.578 1792.6 269.748C1791.77 268.918 1791.37 267.96 1791.71 267.619C1792.05 267.279 1791.78 267 1791.11 267C1790.43 267 1790.14 266.584 1790.45 266.075C1791.14 264.969 1789.02 260 1787.87 260C1787.43 260 1787.35 259.251 1787.7 258.336C1788.13 257.225 1787.96 256.91 1787.18 257.388C1786.45 257.842 1786.22 257.583 1786.57 256.681C1786.87 255.898 1786.44 254.578 1785.6 253.748C1784.77 252.918 1784.37 251.96 1784.71 251.619C1785.05 251.279 1784.78 251 1784.11 251C1783.43 251 1783.14 250.584 1783.45 250.075C1784.14 248.969 1782.02 244 1780.87 244C1780.43 244 1780.35 243.251 1780.7 242.336C1781.17 241.128 1780.98 240.896 1780.02 241.49C1779.17 242.015 1778.93 241.921 1779.36 241.229C1780.11 240.01 1778.11 235 1776.87 235C1776.43 235 1776.35 234.251 1776.7 233.336C1777.13 232.225 1776.96 231.91 1776.18 232.388C1775.45 232.842 1775.22 232.583 1775.57 231.681C1775.87 230.898 1775.44 229.578 1774.6 228.748C1773.77 227.918 1773.37 226.96 1773.71 226.619C1774.05 226.279 1773.78 226 1773.11 226C1772.43 226 1772.14 225.584 1772.45 225.075C1773.14 223.969 1771.02 219 1769.87 219C1769.43 219 1769.35 218.251 1769.7 217.336C1770.13 216.225 1769.96 215.91 1769.18 216.388C1768.45 216.842 1768.22 216.583 1768.57 215.681C1768.87 214.898 1768.44 213.578 1767.6 212.748C1766.77 211.918 1766.37 210.96 1766.71 210.619C1767.05 210.279 1766.78 210 1766.11 210C1765.43 210 1765.14 209.584 1765.45 209.075C1766.14 207.969 1764.02 203 1762.87 203C1762.43 203 1762.35 202.251 1762.7 201.336C1763.13 200.225 1762.96 199.91 1762.18 200.388C1761.45 200.842 1761.22 200.583 1761.57 199.681C1761.87 198.898 1761.44 197.578 1760.6 196.748C1759.77 195.918 1759.37 194.96 1759.71 194.619C1760.05 194.279 1759.78 194 1759.11 194C1758.43 194 1758.14 193.584 1758.45 193.075C1759.14 191.969 1757.02 187 1755.87 187C1755.43 187 1755.35 186.251 1755.7 185.336C1756.13 184.225 1755.96 183.91 1755.18 184.388C1754.45 184.842 1754.22 184.583 1754.57 183.681C1754.87 182.898 1754.44 181.578 1753.6 180.748C1752.77 179.918 1752.37 178.96 1752.71 178.619C1753.05 178.279 1752.78 178 1752.11 178C1751.43 178 1751.14 177.584 1751.45 177.075C1752.14 175.969 1750.02 171 1748.87 171C1748.43 171 1748.35 170.251 1748.7 169.336C1749.17 168.128 1748.98 167.896 1748.02 168.49C1747.17 169.015 1746.93 168.921 1747.36 168.229C1748.11 167.01 1746.11 162 1744.87 162C1744.43 162 1744.35 161.251 1744.7 160.336C1745.13 159.225 1744.96 158.91 1744.18 159.388C1743.45 159.842 1743.22 159.583 1743.57 158.681C1743.87 157.898 1743.44 156.578 1742.6 155.748C1741.77 154.918 1741.37 153.96 1741.71 153.619C1742.05 153.279 1741.78 153 1741.11 153C1740.43 153 1740.14 152.584 1740.45 152.075C1741.14 150.969 1739.02 146 1737.87 146C1737.43 146 1737.35 145.251 1737.7 144.336C1738.13 143.225 1737.96 142.91 1737.18 143.388C1736.45 143.842 1736.22 143.583 1736.57 142.681C1736.87 141.898 1736.44 140.578 1735.6 139.748C1734.77 138.918 1734.37 137.96 1734.71 137.619C1735.05 137.279 1734.78 137 1734.11 137C1733.43 137 1733.14 136.584 1733.45 136.075C1734.14 134.969 1732.02 130 1730.87 130C1730.43 130 1730.35 129.251 1730.7 128.336C1731.13 127.225 1730.96 126.91 1730.18 127.388C1729.45 127.842 1729.22 127.583 1729.57 126.681C1729.87 125.898 1729.44 124.578 1728.6 123.748C1727.77 122.918 1727.37 121.96 1727.71 121.619C1728.05 121.279 1727.78 121 1727.11 121C1726.43 121 1726.14 120.584 1726.45 120.075C1727.14 118.969 1725.02 114 1723.87 114C1723.43 114 1723.35 113.251 1723.7 112.336C1724.13 111.225 1723.96 110.91 1723.18 111.388C1722.45 111.842 1722.22 111.583 1722.57 110.681C1722.87 109.898 1722.44 108.578 1721.6 107.748C1720.77 106.918 1720.37 105.96 1720.71 105.619C1721.05 105.279 1720.78 105 1720.11 105C1719.43 105 1719.14 104.584 1719.45 104.075C1720.14 102.969 1718.02 98 1716.87 98C1716.43 98 1716.35 97.251 1716.7 96.336C1717.17 95.128 1716.98 94.896 1716.02 95.49C1715.17 96.015 1714.93 95.921 1715.36 95.229C1716.11 94.01 1714.11 89 1712.87 89C1712.43 89 1712.35 88.251 1712.7 87.336C1713.13 86.225 1712.96 85.91 1712.18 86.388C1711.45 86.842 1711.22 86.583 1711.57 85.681C1711.87 84.898 1711.44 83.578 1710.6 82.748C1709.77 81.918 1709.37 80.96 1709.71 80.619C1710.05 80.279 1709.78 80 1709.11 80C1708.43 80 1708.14 79.584 1708.45 79.075C1709.14 77.969 1707.02 73 1705.87 73C1705.43 73 1705.35 72.251 1705.7 71.336C1706.13 70.225 1705.96 69.91 1705.18 70.388C1704.45 70.842 1704.22 70.583 1704.57 69.681C1704.87 68.898 1704.44 67.578 1703.6 66.748C1702.77 65.918 1702.37 64.96 1702.71 64.619C1703.05 64.279 1702.78 64 1702.11 64C1701.43 64 1701.14 63.584 1701.45 63.075C1702.14 61.969 1700.02 57 1698.87 57C1698.43 57 1698.35 56.251 1698.7 55.336C1699.13 54.225 1698.96 53.91 1698.18 54.388C1697.45 54.842 1697.22 54.583 1697.57 53.681C1697.87 52.898 1697.44 51.578 1696.6 50.748C1695.77 49.918 1695.37 48.96 1695.71 48.619C1696.05 48.279 1695.78 48 1695.11 48C1694.43 48 1694.14 47.584 1694.45 47.075C1695.14 45.969 1693.02 41 1691.87 41C1691.43 41 1691.35 40.251 1691.7 39.336C1692.13 38.225 1691.96 37.91 1691.18 38.388C1690.45 38.842 1690.22 38.583 1690.57 37.681C1690.87 36.898 1690.44 35.578 1689.6 34.748C1688.77 33.918 1688.37 32.96 1688.71 32.619C1689.05 32.279 1688.82 32 1688.2 32C1687.55 32 1687.34 31.286 1687.7 30.336C1688.13 29.225 1687.96 28.91 1687.18 29.388C1686.45 29.842 1686.22 29.583 1686.57 28.681C1686.87 27.898 1686.49 26.633 1685.73 25.87C1684.96 25.107 1684.55 23.861 1684.8 23.102C1685.1 22.184 1684.83 21.987 1683.97 22.515C1683.16 23.016 1682.94 22.91 1683.36 22.229C1684.11 21.01 1682.11 16 1680.87 16C1680.43 16 1680.35 15.251 1680.7 14.336C1681.13 13.225 1680.96 12.91 1680.18 13.388C1679.45 13.842 1679.22 13.583 1679.57 12.681C1679.87 11.898 1679.44 10.578 1678.6 9.748C1677.77 8.918 1677.37 7.96 1677.71 7.619C1678.05 7.279 1677.78 7 1677.11 7C1676.43 7 1676.14 6.584 1676.45 6.075C1676.77 5.566 1676.5 3.991 1675.85 2.575L1674.68 0H1594.84H1515V222ZM0 223.5V444H79.508H159.015L158.758 319.25L158.5 194.5L315.75 194.756L473 195.012V99.006V3H236.5H0V223.5ZM309 95V158H231H153V95V32H231H309V95ZM1197 253.5V444H1340.5H1484V427.485V410.971L1420.75 411.235L1357.5 411.5V302V192.5L1420.75 192.765L1484 193.029V175.515V158H1421.03H1358.06L1357.78 126.75L1357.5 95.5L1420.75 95.765L1484 96.029V79.515V63H1340.5H1197V253.5ZM182 330.504V444H421.5H661V330.504V217.008H421.5H182V330.504ZM501.5 330.25V411.5L421.75 411.238L342 410.976V330.494V250.012L421.75 249.75C465.613 249.606 501.5 249.378 501.5 249.244C501.5 249.11 501.5 285.563 501.5 330.25Z" fill="white"/>
</svg>
