<?xml version="1.0" encoding="UTF-8"?>
<svg id="Layer_1" data-name="Layer 1" xmlns="http://www.w3.org/2000/svg" viewBox="0 0 1128.42 554.34">
  <defs>
    <style>
      .cls-1 {
        fill: #fff;
        stroke-width: 0px;
      }
    </style>
  </defs>
  <path class="cls-1" d="m796.19,107.02c-.99,3.95-2.83,7.62-2.63,11.16.74,12.76,1.49,25.6,3.61,38.18,1.19,7.01,4.52,13.87,7.93,20.23,5.49,10.26,7.13,20.58,3.59,31.72-2.91,9.17-6.63,12.67-14.62,13.42-9.18.87-17.19-3.05-20.83-10.68-6.21-13-10.43-26.73-11.81-41.03-1.83-18.87-2.49-37.85-4.18-56.74-.84-9.41-2.63-18.75-4.35-28.05-3.15-17.03,8.75-31.77,26.08-32.22,14.93-.39,27.14,5.83,37.84,15.47,7.18,6.46,13.93,13.39,20.88,20.1,1.91,1.84,3.84,3.64,6.39,6.05,3.18-5.97,6.29-11.39,9.01-17.01,4.57-9.44,8.34-19.3,13.44-28.43,7.96-14.25,20.59-22.93,36.43-26.41,7.1-1.56,14.14.7,19.82,4.94,2.73,2.04,4.95,6.19,5.38,9.64,2.45,19.63,4.09,39.37,6.38,59.02,2.46,21.14,5.23,42.24,8.09,63.33,1.14,8.39,5.53,14.83,13.05,19.05,2.01,1.13,4.05,2.45,5.6,4.12,2.99,3.22,3.25,6.78.25,10.3-7.28,8.55-27.03,12.86-36.93,8.02-6.35-3.1-9.97-8.72-13.03-14.68-7.45-14.55-9.25-30.38-10.33-46.38-1.26-18.59-2.76-37.16-4.19-55.74-.02-.26-.35-.5-.88-1.22-6.29,2.82-11.51,7.03-12.66,14.05-1.84,11.29-3.08,22.71-3.98,34.13-1.35,17.02-10.5,25.06-27.87,27.9-5.11.84-8.59-1.84-11.32-5.76-5.81-8.33-11.46-16.77-17.38-25.02-7.57-10.55-16.2-17.52-26.78-21.47Z"/>
  <path class="cls-1" d="m595.93,13.05c9.52,0,23.84-.13,38.16.04,14.26.17,24.16,7.31,30.39,19.88,3.61,7.3,1.96,13.81-2.9,19.95-9.93,12.53-19.81,25.1-29.62,37.72-5.88,7.56-5.78,8.84.14,16.45,10.32,13.26,20.01,27.07,31.12,39.63,9.02,10.18,19.41,19.5,33.79,21.71,4.37.67,8.93.34,13.4.16,4.36-.18,9.25-.02,10.86,4.2,1.23,3.22.05,7.57-.71,11.28-.36,1.76-2.12,3.34-3.49,4.77-11.93,12.36-36.56,15.61-51.35,7.08-19.69-11.36-34.96-27.52-49.3-44.74-2.66-3.2-5.32-6.42-8.16-9.46-4.3-4.6-8.67-5.41-13.93-2.86-4.77,2.31-6.18,5.38-4.88,12.04,2.34,12.07,4.86,24.11,7.41,36.14,2.02,9.51-6.54,19.67-16.04,17.77-3.65-.73-7.94-4.29-9.61-7.7-4.05-8.27-7.91-16.97-9.74-25.93-4.04-19.84-6.15-40.08-10.28-59.9-3.11-14.93-8.2-29.44-12.23-44.19-1.35-4.95-2.5-10.02-3.09-15.11-1.7-14.51,5.29-25.69,19.1-32.38,11.49-5.57,23.34-8.65,40.96-6.56Zm-9.33,55.93c.87,3.44.97,7.38,2.8,10.18,2.13,3.25,14.56,3.56,17.83.96,6.58-5.23,12.19-11.32,15.37-19.3,3.74-9.39,2.71-11.34-7.24-13.68-18.85-4.44-27.61,2.33-28.76,21.83Z"/>
  <path class="cls-1" d="m694.97,425.51c-4.79,1.4-8.96,2.39-12.97,3.83-6.41,2.3-12.68,4.99-19.07,7.35-8.37,3.08-12.22,8.59-12.87,18.21-1.11,16.42-1.84,32.89-3.83,49.2-.77,6.34-3.66,12.88-7.14,18.34-5.18,8.11-14.85,7.89-21.16.49-6.13-7.18-6.31-15.87-5.99-24.57.44-11.79,1.2-23.57,1.91-37.02-5.44,2.51-10.21,4.71-14.98,6.92-5.06,2.35-9.92,5.94-15.21,6.79-10.17,1.63-17.05-4.02-20.42-14.84-3-9.62.04-18.11,9.13-22.83,7.06-3.67,14.65-6.33,22-9.42.61-.26,1.26-.44,1.88-.67,10.43-3.95,11.49-5.98,8.27-16.76-3.17-10.6-2.18-21.09.86-31.45,2.23-7.59,7.64-11.78,15.49-13.01,3.6-.56,7.17-1.43,10.69-2.4,4.23-1.16,7.62.14,10.28,3.31,6.76,8.09,11.73,16.69,10.71,28.03-.87,9.64,1.71,11.96,10.85,9.69,11.25-2.79,22.29-6.49,33.26-10.28,5.13-1.77,7.91-6.02,7.69-11.68-.28-7.3-1.05-14.6-1.04-21.9.01-12.92,6.45-22.8,15.96-30.86,3.5-2.96,7.73-3.64,12.22-2.04,6.67,2.38,11.85,6.67,15.81,12.41,3.28,4.76,2.04,9.89.57,14.9-1.55,5.26-3.35,10.44-4.84,15.72-1.95,6.88-1.13,12.92,4.64,18.11,5.53,4.97,5.51,10.94-.4,15.34-12.11,9.02-15.69,21.73-15.65,35.59.06,21.46,1.14,42.92,1.74,64.38.19,6.82-2.04,10.04-8.02,12.95-4.53,2.2-8.16,1.4-11.81-1.9-12.3-11.12-18.75-24.65-18.36-41.46.35-14.79.15-29.6.17-44.4,0-.97-.17-1.94-.38-4.08Z"/>
  <path class="cls-1" d="m419.03,433.93c1.87-2.87,4.46-5.5,5.47-8.65,4-12.42,12.6-21.44,21.59-30.13,7.3-7.06,14.8-13.94,22.61-20.43,3.9-3.24,8.52-5.72,13.09-8.01,13.24-6.63,26.61-13,39.96-19.44,2.09-1.01,4.23-1.99,6.45-2.63,5.85-1.69,11.18.49,13.64,5.36,2.18,4.33.84,9.7-4.03,13.16-5.28,3.76-10.88,7.09-16.47,10.38-15.52,9.15-30.72,18.71-43.74,31.38-5.33,5.19-6.27,7.76-3.69,14.55,6.04,15.86,12.41,31.6,18.2,47.55,4.77,13.13,13.84,22.01,25.66,28.77,4.42,2.53,8.83,5.47,12.35,9.09,4.93,5.07,3.88,10.27-2.08,14.17-9.59,6.28-20.27,6.45-31.28,6.01-13.04-.52-21.23-8.67-27.85-17.98-6.68-9.4-11.69-20.05-16.97-30.39-3.72-7.3-5.39-9.8-11.07-12.47-6.79,9.84-9.55,20.97-10.44,32.71-1.19,15.65-9.04,27.94-19.84,38.61-3.38,3.34-7.77,3.66-12.12,1.9-7.32-2.96-13.09-10.66-12.15-18.38,3.4-28.19-2.91-55.24-8.45-82.48-3.54-17.42-6.42-34.98-9.29-52.52-2.08-12.67,4.17-24.11,15.81-29.49,5.74-2.65,11.14-2.23,16.23,2.12,9.01,7.7,12.63,17.03,12.22,29.06-.4,11.74,1.27,23.56,2.26,35.33.36,4.28,1.37,8.5,2.08,12.75.62.03,1.23.06,1.85.08Z"/>
  <path class="cls-1" d="m841.5,475.16c9.55-4.65,12.76-14.1,17.99-21.85,3.91-5.79,6.89-12.22,10.96-17.87,9.92-13.8,11.57-28.96,8.86-45.2-2.55-15.28,6.15-28.05,21.45-32.17,8.22-2.21,15.9-.88,22.86,3.84,4.34,2.95,7.84,6.66,7.97,12.5.24,10.59,1,21.19.85,31.78-.3,21.19,5.03,41.1,12.34,60.72,3.73,10.02,8.83,18.76,17,25.95,3.13,2.75,5.05,7.41,6.36,11.56,1.77,5.65-1.18,10.65-6.83,12.73-8.03,2.95-15.98,2.41-23.76-1.19-14.53-6.71-23.4-18.31-28.39-33.14-3.48-10.34-6.68-20.78-10.37-32.32-5.95,8.67-10.8,16.53-16.44,23.78-9.26,11.93-18.7,23.75-28.73,35.03-4.47,5.03-10.44,8.83-17.83,8.97-11.3.21-18.56-6.39-24.52-14.81-6.94-9.8-8.79-21.44-10.86-32.89-1.62-8.99-2.76-18.08-3.94-27.14-.34-2.62-.5-5.4,0-7.97,2.46-12.67.43-25.23-.75-37.79-1.19-12.67.31-24.56,7.74-35.26,3.27-4.71,7.7-7.2,13.45-7.35,20.17-.53,31.9,14.52,26.99,34.53-2.73,11.12-5.83,22.18-7.85,33.43-3.09,17.19-1.64,36.54,5.45,52.13Z"/>
  <path class="cls-1" d="m291.88,441.12c.55,3.9.56,7.79,1.68,11.33,4.21,13.32,8.32,26.72,13.43,39.7,2.49,6.32,6.86,11.97,10.86,17.59,3.23,4.53,8.37,8.14,5.4,14.81-3.25,7.31-8.82,10.81-16.91,10.79-13.67-.03-21.16-5.52-27.13-17.88-9-18.65-12.33-38.89-17.86-58.52-1.92-6.83-4.7-8.58-11.33-5.95-4.59,1.82-8.91,4.45-13.11,7.09-7.47,4.69-14.97,9.37-22.08,14.58-11.66,8.54-14.52,19.17-9.11,32.53,2.53,6.24,4.63,12.48,3.77,19.34-.97,7.83-4.39,14.04-12.17,16.77-7.65,2.69-13.5-.97-18.83-6.04-8.9-8.47-8.14-19.37-6.88-29.93,3.77-31.61,10.49-62.63,21.89-92.42,7.27-19,16.35-37.17,29.87-52.73,4.88-5.61,9.72-11.26,14.61-16.86,1.42-1.63,2.89-3.23,4.43-4.74,6.49-6.37,12.98-6.92,20.77-2.18,12.14,7.39,16.27,19.17,18.19,32.27,1.98,13.48,3.95,26.96,6.19,40.4.25,1.51,2.02,3.33,3.53,3.97,4.58,1.94,9.39,3.34,14.09,5.04,1.56.56,3.55.97,4.44,2.13,1.93,2.53,4.43,5.47,4.49,8.3.04,2.07-3.03,5.19-5.4,6.13-5.02,2-10.49,2.88-16.82,4.48Zm-47.43-56.39c-.73.04-1.46.08-2.2.12-4.59,6.08-9.93,11.75-13.55,18.36-3.37,6.13-5.08,13.21-7.18,19.98-.93,2.99.26,5.38,3.96,5.08,7.55-.62,15.15-1,22.6-2.25,4.33-.73,6.6-5.31,5.76-9.63-1.44-7.5-2.74-15.05-4.67-22.42-.85-3.27-3.11-6.17-4.73-9.24Z"/>
  <path class="cls-1" d="m44.6,72.47c-.55,8.19,3.44,14.15,9.33,18.61,13.51,10.24,26.94,20.71,41.22,29.8,11.92,7.59,19.87,18.05,26.38,29.94,3.46,6.32,2.8,13.48.48,19.96-7.29,20.45-15.05,40.58-34.13,53.8-7.2,4.99-13.11,11.8-19.88,17.45-8.51,7.1-16.56,6.67-21.68-.74-5.91-8.55-4.01-19.69,4.66-24.74,11.43-6.67,21.93-14.33,27.05-26.99,2.25-5.57,3.7-11.83,3.83-17.82.19-8.35-4.69-14.61-11.37-19.47-16.15-11.75-32.53-23.21-48.24-35.52C11.44,108.29,3.29,97.47.85,83.43c-2.07-11.93-.67-23.11,7.41-32.94,9.09-11.05,17.64-22.55,26.78-33.56C42.55,7.88,52.7,2.86,64.03.45c8-1.7,15.05,1.61,21.68,5.69,14.52,8.93,24.64,22.24,34.65,35.54,4.5,5.98,3.9,12.9.79,19.47-2.49,5.26-5.37,10.34-7.92,15.57-2.06,4.23-5.3,6.32-9.96,6.02-9.26-.6-15.97.37-21.33-13.21-2.12-5.37-5.3-10.36-8.37-15.3-3.6-5.8-9.01-8.16-15.81-6.98-4.99.87-8.5,3.17-9.44,8.73-.94,5.54-2.47,10.99-3.74,16.48Z"/>
  <path class="cls-1" d="m1068.8,209.9c-13.44-.58-25.56-16.28-22.28-29.24,1.73-6.83,7.82-11.7,16.3-11.29,9.3.45,11.4-4.95,11.03-13.78-.31-7.17-4.94-12.12-10.12-16.55-9.96-8.52-18.35-18.42-24.81-29.8-8.74-15.4-14.53-31.8-14.55-49.73-.02-15.2,6.53-27.97,15.9-39.47,1.01-1.24,2.49-2.43,3.98-2.89,10.14-3.16,20.19-6.85,30.55-8.97,17.77-3.64,39.76,4.7,46.84,27.19,1.94,6.18,4.38,12.2,6.32,18.37,2.47,7.88-5.12,23.13-13.25,27.08-8.82,4.28-19.33,1.29-25.59-7.22-1.48-2.01-2.92-4.1-4.71-5.82-4.59-4.42-9.96-2.74-11.87,3.35-2.64,8.42,1.34,14.16,6.85,19.92,9.07,9.48,17.79,19.33,26.36,29.28,3.57,4.14,6.68,8.76,9.45,13.49,7.52,12.83,7.45,26,.42,38.97-4.36,8.04-9.44,15.68-13.9,23.66-2.69,4.82-6.5,7.16-11.92,7.8-3.4.4-6.68,1.8-10.03,2.72-3.65,1-7.3,1.97-10.96,2.95Z"/>
  <path class="cls-1" d="m48.44,324.44c14.61,3.1,29.27,5.96,43.8,9.36,12.19,2.85,23.93,7.06,34.45,14.11,10.07,6.75,17.82,15.45,22.31,26.83,5.68,14.37,2.21,27.81-8.93,38.6-16.17,15.67-35.43,27.04-53.81,39.64-8.45,5.8-9.78,9.42-7.72,19.35,4.4,21.13,8.6,42.31,12.68,63.5,1.61,8.39.14,10.81-7.87,14.28-5.37,2.33-10.47,6.11-16.97,3.12-4.93-2.27-8.14-5.73-9.07-11.08-5.93-34.05-11.9-68.09-17.61-102.17-.7-4.17.24-8.6.15-12.9-.12-6.3-.05-12.64-.82-18.87-2.69-21.91-3.77-44.05-9.72-65.52-2.34-8.45,5.65-16.75,15.98-17.57.99-.08,2-.01,3-.01.04-.22.09-.45.13-.67Zm69.36,63.25l-1.27-.69c.11-6.62-2.08-12.23-7.91-15.7-10.68-6.36-22.13-10.74-34.61-11.91-6.27-.59-8.11,1.13-7.48,7.26,1.59,15.54,3.29,31.07,5.17,46.58.79,6.49,2.8,7.62,9.07,5.36,11.25-4.05,21.51-10.02,30-18.39,3.28-3.23,4.75-8.29,7.04-12.51Z"/>
  <path class="cls-1" d="m475.87,119.24c-.99,30.65-10.85,57.11-34.21,77.77-23.86,21.1-56.77,12.76-67.16-17.4-2.46-7.14-3.7-14.83-4.54-22.37-1.57-14.03-4.14-28.25-3.25-42.2,2.29-36.04,17.01-65.66,49.29-84.63,5.56-3.27,11.47-3.05,17.4-1.49,12.54,3.3,21.57,9.93,25.11,23.48,4.15,15.88,9.84,31.36,14.3,47.17,1.79,6.34,2.09,13.1,3.06,19.67Zm-36.58,20.38c-.07-.96-.07-2.3-.29-3.61-1.33-8.03-2.77-16.04-4.05-24.08-1.3-8.23-4.17-15.78-9.65-22.13-5.71-6.62-11.01-5.88-14.34,2.1-3.14,7.52-5.61,15.32-8.85,22.79-2.57,5.91-3.18,11.68-1.67,17.93,2.3,9.52,3.81,19.25,6.47,28.66,2.12,7.49,7.61,9.59,14.4,6.08,11.04-5.7,17.39-14.68,17.98-27.75Z"/>
  <path class="cls-1" d="m215.54,78.33c-6.9,2.34-12.82,4.43-18.79,6.35-3.15,1.01-6.35,2.2-9.6,2.49-10.97.98-19.4-3.46-22.81-11.58-4.31-10.29-1.72-22.22,6.51-29.17,9.29-7.85,19.97-10.38,31.72-7.3,5.84,1.53,11.24,1.15,16.3-1.99,6.31-3.92,13.15-4.9,20.48-5.17,27.61-1.01,55.2-2.4,82.8-3.72,9.44-.45,13.25,1.16,15.45,6.89,2.77,7.22,1.81,9.69-5.17,12.75-13.33,5.85-27.58,7.2-41.86,8.39-5.3.44-10.61.82-15.88,1.51-7.93,1.04-12.2,6.02-14.11,13.53-.77,3.02-1.69,6.08-3.06,8.87-9.19,18.77-10.05,38.72-8.66,59.02.27,3.98.77,7.95.94,11.94.59,13.3,4.32,25.79,9.14,38.11,2.7,6.9,3.52,14.19.83,21.48-2.51,6.78-6.45,8.86-13.17,6.47-16.58-5.91-26.97-17.39-28.19-35.14-1.3-18.89-1.41-37.88-1.69-56.83-.17-11.98.42-23.97.42-35.96,0-3.25-.91-6.51-1.59-10.95Z"/>
  <path class="cls-1" d="m1097.74,393.61c-8.12-3.22-16.25-6.41-24.35-9.69-2.15-.87-4.11-2.25-6.29-3.03-6.96-2.49-13.72.31-16.47,7.14-4.75,11.8-4.03,22.92,4.22,33.29,6.43,8.07,12.66,16.34,18.36,24.94,11.02,16.61,14.26,35.11,10.42,54.46-3.29,16.56-14.98,26.61-29.62,33.45-7.16,3.35-11.99-1.13-16.39-6.02-4.71-5.23-5.44-9.82-2.26-16.02,2.8-5.47,5.87-10.81,8.77-16.24,3.57-6.67,2.71-13.22-.96-19.48-6.88-11.77-13.48-23.7-23.13-33.65-8.59-8.87-10.68-20.34-11.38-32.22-.79-13.43-1.13-27,6.21-38.79,4.21-6.76,10.35-12.42,16.14-18.04,3.79-3.68,8.49-6.42,12.8-9.55,23.58-17.07,52.74-12.89,71.19,8.7,5.54,6.48,6.24,13.34,2.92,20.86-1.48,3.35-3.1,6.63-4.79,9.87-3.13,5.99-7.81,9.43-14.93,8.65-.16.45-.32.91-.47,1.36Z"/>
</svg>